<?xml version="1.0" standalone="no"?>
<!DOCTYPE svg PUBLIC "-//W3C//DTD SVG 1.1//EN" "http://www.w3.org/Graphics/SVG/1.1/DTD/svg11.dtd" >
<svg xmlns="http://www.w3.org/2000/svg">
<metadata>Generated by IcoMoon</metadata>
<defs>
<font id="DetactFont" horiz-adv-x="1024">
<font-face units-per-em="1024" ascent="960" descent="-64" />
<missing-glyph horiz-adv-x="1024" />
<glyph unicode="&#x20;" horiz-adv-x="512" d="" />
<glyph unicode="&#xe900;" glyph-name="lock-open" d="M384 448v256c0 70.692 57.308 128 128 128s128-57.308 128-128v0h128c0 141.385-114.615 256-256 256s-256-114.615-256-256v0-256h-128v-378.88s0-5.12 0-5.12c0-70.692 57.308-128 128-128v0c2.488-0.167 5.393-0.263 8.32-0.263s5.832 0.095 8.712 0.283l-0.392-0.020h478.72c2.488-0.167 5.393-0.263 8.32-0.263s5.832 0.095 8.712 0.283l-0.392-0.020c70.692 0 128 57.308 128 128v0s0 5.12 0 7.040v0 376.96zM576 128c0-35.346-28.654-64-64-64s-64 28.654-64 64v0 128c0 35.346 28.654 64 64 64s64-28.654 64-64v0z" />
<glyph unicode="&#xe901;" glyph-name="checkbox-unchecked" d="M896 960h-896v-1024h1024v1024z" />
<glyph unicode="&#xe902;" glyph-name="checkbox-checked" d="M1024 960h-1024v-1024h1024zM426.88 152.96l-298.88 295.040 128 128 170.88-167.040 341.12 341.12 128-128z" />
<glyph unicode="&#xe903;" glyph-name="angle-down" d="M512 383.36l-384 384.64-128-128 512-512 512 512-127.36 128-384.64-384.64z" />
<glyph unicode="&#xe904;" glyph-name="angle-left" d="M383.36 448l384.64 384-128 128-512-512 512-512 128 127.36-384.64 384.64z" />
<glyph unicode="&#xe905;" glyph-name="angle-right" d="M640.64 448l-384.64-384.64 128-127.36 512 512-512 512-128-128 384.64-384z" />
<glyph unicode="&#xe906;" glyph-name="angle-up" d="M512 512.64l384.64-384.64 127.36 128-512 512-512-512 128-128 384 384.64z" />
<glyph unicode="&#xe907;" glyph-name="clock-on" d="M512 960c-282.77 0-512-229.23-512-512s229.23-512 512-512c282.77 0 512 229.23 512 512v0c0 282.77-229.23 512-512 512v0zM512 64c-212.077 0-384 171.923-384 384s171.923 384 384 384c212.077 0 384-171.923 384-384v0c0-212.077-171.923-384-384-384v0zM554.88 448v256h-85.76v-341.76h256v85.76h-170.24z" />
<glyph unicode="&#xe908;" glyph-name="close-up" d="M0 960h192v-1024h-192v1024zM639.36 448l256.64 256-37.76 37.12 0.64 0.64-90.88 90.24-384-384 384-384 90.88 90.24h-0.64l37.76 37.76-256.64 256z" />
<glyph unicode="&#xe909;" glyph-name="close" d="M640 448v0 0l256 256-128 128-256-256-256 256-128-128 256-256-256-256 128-128 256 256 256-256 128 128-256 256z" />
<glyph unicode="&#xe90a;" glyph-name="check" d="M384 64l-384 384 128 128 256-256 512 512 128-128z" />
<glyph unicode="&#xe90b;" glyph-name="folder" d="M640 704s0 256-256 256h-384v-1024h1024v768z" />
<glyph unicode="&#xe90c;" glyph-name="gear" d="M1019.52 384c2.497 19.216 3.922 41.442 3.922 64s-1.425 44.784-4.19 66.591l0.268-2.591-128 33.92c-10.136 35.766-24.114 67.014-41.877 95.669l0.917-1.589 69.76 117.12c-26.008 35.754-55.075 66.853-87.515 94.063l-0.805 0.657-120.96-67.84c-28.548 17.591-61.573 31.849-96.652 41.033l-2.548 0.567-35.84 130.56c-19.217 2.522-41.44 3.961-64 3.961s-44.783-1.439-66.583-4.231l2.583 0.27-34.56-128c-37.76-10.486-70.707-24.463-101.298-42.074l2.098 1.114-114.56 64c-34.674-27.025-64.951-57.099-91.314-90.411l-0.846-1.109 67.2-115.2c-16.074-27.613-29.431-59.542-38.417-93.255l-0.623-2.745-131.2-36.48c-2.68-20.008-4.21-43.139-4.21-66.627 0-21.627 1.297-42.952 3.818-63.899l-0.248 2.526 133.76-35.2c9.517-35.259 22.642-66.108 39.37-94.586l-0.97 1.786-72.32-121.6c27.111-34.6 57.174-64.866 90.413-91.31l1.107-0.85 128 72.32c25.576-15.094 55.129-27.767 86.33-36.492l2.63-0.628 35.84-137.6c19.216-2.497 41.442-3.922 64-3.922s44.784 1.425 66.591 4.19l-2.591-0.268 36.48 138.24c34.779 9.253 65.209 21.946 93.394 38.11l-1.874-0.99 121.6-71.68c34.859 27.177 65.171 57.693 91.281 91.611l0.879 1.189-71.68 119.68c16.305 26.145 29.843 56.327 39.055 88.341l0.625 2.539zM512 192c-141.385 0-256 114.615-256 256s114.615 256 256 256c141.385 0 256-114.615 256-256v0c0-141.385-114.615-256-256-256v0z" />
<glyph unicode="&#xe90d;" glyph-name="goto" d="M832 960h192v-1024h-192v1024zM384 544h-384v-192h384v-160l256 256-256 256v-160z" />
<glyph unicode="&#xe90e;" glyph-name="info" d="M618.88 106.88v426.24h-362.88v-170.24h149.12v-256h-149.12v-170.88h512v170.88h-149.12zM490.88 661.12c82.71 0 149.76 67.050 149.76 149.76s-67.050 149.76-149.76 149.76c-82.71 0-149.76-67.050-149.76-149.76v0c-0.001-0.191-0.001-0.416-0.001-0.641 0-82.357 66.763-149.12 149.12-149.12 0.226 0 0.451 0.001 0.676 0.002h-0.035z" />
<glyph unicode="&#xe90f;" glyph-name="ellipsis-v" d="M640 832c0-70.692-57.308-128-128-128s-128 57.308-128 128c0 70.692 57.308 128 128 128s128-57.308 128-128zM640 448c0-70.692-57.308-128-128-128s-128 57.308-128 128c0 70.692 57.308 128 128 128s128-57.308 128-128zM640 64c0-70.692-57.308-128-128-128s-128 57.308-128 128c0 70.692 57.308 128 128 128s128-57.308 128-128z" />
<glyph unicode="&#xe910;" glyph-name="minus" d="M964.48 357.76v180.48h-904.96v-180.48h904.96z" />
<glyph unicode="&#xe911;" glyph-name="open-up" d="M0 960h192v-1024h-192v1024zM640.64 448l-256.64-256 37.12-37.76 90.88-90.24 384 384-384 384-90.88-90.24v-0.64l-37.12-37.12 256.64-256z" />
<glyph unicode="&#xe912;" glyph-name="plus" d="M602.24 357.76v0 0h362.24v180.48h-362.24v362.24h-180.48v-362.24h-362.24v-180.48h362.24v-362.24h180.48v362.24z" />
<glyph unicode="&#xe913;" glyph-name="user" d="M512 960c141.385 0 256-114.615 256-256s-114.615-256-256-256c-141.385 0-256 114.615-256 256v0c0 141.385 114.615 256 256 256v0zM938.88-64h-853.76v146.56c10.57 123.378 113.326 219.518 238.536 219.518 6.146 0 12.237-0.232 18.267-0.687l-0.803 0.049h19.2c44.827-19.025 96.962-30.082 151.68-30.082s106.852 11.057 154.292 31.060l-2.612-0.978h19.2c5.050 0.379 10.94 0.594 16.879 0.594 125.323 0 228.21-96.056 239.055-218.56l0.065-0.914z" />
<glyph unicode="&#xe914;" glyph-name="question" d="M502.4 192c-70.692 0-128-57.308-128-128s57.308-128 128-128c70.692 0 128 57.308 128 128v0c0 70.692-57.308 128-128 128v0zM519.68 960c-5.225 0.269-11.344 0.423-17.499 0.423-130.933 0-245.641-69.467-309.279-173.555l-0.902-1.588-20.48-29.44 28.16-21.76 83.84-64 28.16-21.76 21.76 28.16c34.535 60.042 97.917 100.068 170.732 101.118l0.148 0.002c67.84 0 144-44.16 144-108.16 0-52.48-46.72-78.72-100.48-109.44h-5.12c-64-37.12-147.2-83.84-148.48-192v-85.12h212.48v70.4c0 36.48 39.040 58.88 83.2 84.48 71.040 41.6 160 93.44 160 229.76 0 164.48-174.72 292.48-330.24 292.48z" />
<glyph unicode="&#xe915;" glyph-name="forward" d="M640 676.48v219.52l384-384-384-384v225.28c-284.16 0-512-97.28-640-353.28 0 384 241.92 622.080 640 676.48z" />
<glyph unicode="&#xe916;" glyph-name="save" d="M768 960h-682.88c-46.865-0.36-84.76-38.255-85.12-85.086v-853.794c0.36-46.865 38.255-84.76 85.086-85.12h853.794c46.865 0.36 84.76 38.255 85.12 85.086v682.914zM128 832h512v-128h-512zM547.84 67.84c-10.772-2.444-23.142-3.845-35.84-3.845s-25.068 1.401-36.965 4.056l1.125-0.211c-89.521 17.463-156.16 95.262-156.16 188.625 0 106.039 85.961 192 192 192s192-85.961 192-192c0-93.363-66.639-171.162-154.947-188.428l-1.213-0.198z" />
<glyph unicode="&#xe917;" glyph-name="search" d="M1024 26.24l-256 256c50.513 69.185 80.82 155.919 80.82 249.731 0 235.406-190.834 426.24-426.24 426.24s-426.24-190.834-426.24-426.24c0-235.406 190.834-426.24 426.24-426.24 97.035 0 186.496 32.425 258.141 87.030l-1.041-0.761 256-256zM128 533.12c0 0.19-0.001 0.415-0.001 0.64 0 165.067 133.813 298.88 298.88 298.88s298.88-133.813 298.88-298.88c0-165.067-133.813-298.88-298.879-298.88v0c0 0-0.001 0-0.001 0-164.842 0-298.515 133.449-298.879 298.205v0.035z" />
<glyph unicode="&#xe918;" glyph-name="star-fill" d="M512 960l-128-401.28h-384l315.52-231.040-119.040-391.68 315.52 240.64 315.52-240.64-119.040 391.68 315.52 231.040h-384l-128 401.28z" />
<glyph unicode="&#xe919;" glyph-name="star" d="M512 679.040l46.72-145.92 17.28-59.52h185.6l-103.68-76.8-49.28-35.84 17.92-58.24 42.24-138.24-104.96 80-51.84 39.040-51.84-39.040-104.96-80 42.24 138.24 17.92 58.24-49.28 35.84-104.96 76.8h186.88l18.56 59.52 45.44 145.92zM512 960l-128-401.28h-384l315.52-231.040-119.040-391.68 315.52 240.64 315.52-240.64-119.040 391.68 315.52 231.040h-384l-128 401.28z" />
<glyph unicode="&#xe91a;" glyph-name="trash" d="M896 21.12s0-85.12-128-85.12h-512c-128 0-128 85.12-128 85.12v618.88h768zM384 512h-128v-448h128zM576 512h-128v-448h128zM768 512h-128v-448h128zM128 768v128h192l64 64h256l64-64h192v-128h-768z" />
<glyph unicode="&#xe91b;" glyph-name="detact" d="M480 97.28c-22.197-24.201-53.714-39.546-88.822-40.318l-0.138-0.002c-41.213 3.169-73.453 37.389-73.453 79.14 0 6.898 0.88 13.591 2.534 19.971l-0.121-0.551c10.499 46.262 51.268 80.278 99.982 80.278 2.653 0 5.282-0.101 7.884-0.299l-0.346 0.021c33.92 0 48.64-28.16 67.84-56.96s185.6-80.64 186.24 51.84c0 144.64-151.040 377.6-227.84 384h-27.52l-26.88-8.96c-74.24-24.96-131.84-97.92-128-230.4 6.475-21.951 10.201-47.17 10.201-73.259 0-41.501-9.427-80.8-26.258-115.872l0.697 1.611c-46.080-85.76-138.24-111.36-201.6-59.52-34.185 35.309-55.254 83.494-55.254 136.6 0 38.021 10.799 73.519 29.498 103.595l-0.484-0.835c30.078 46.257 78.477 78.431 134.669 86.284l1.011 0.116c92.16 14.72 140.16 122.24 127.36 225.28-7.086 21.691-11.171 46.652-11.171 72.568 0 37.086 8.367 72.218 23.317 103.611l-0.625-1.459c25.803 48.466 72.060 83.128 126.939 92.648l1.061 0.152c8.294 1.975 17.818 3.108 27.605 3.108 41.111 0 77.556-19.981 100.152-50.762l0.243-0.346c35.2-48 23.68-106.88 12.16-177.92-13.44-108.16 131.2-384 238.080-379.52 71.040-5.76 131.84-7.68 175.36-67.84 24.715-34.894 39.507-78.336 39.507-125.232 0-64.254-27.767-122.022-71.957-161.959l-0.19-0.169c-29.217-24.803-67.361-39.886-109.029-39.886-60.459 0-113.501 31.755-143.357 79.496l-0.414 0.71c-85.12 124.8-186.88 92.16-218.88 71.040z" />
<glyph unicode="&#xe91c;" glyph-name="alphanumeric" d="M936.32-53.76c-17.594-6.53-37.918-10.308-59.125-10.308-1.714 0-3.423 0.025-5.125 0.074l0.25-0.006c-114.56 0-168.32 92.8-168.32 217.6 0 166.4 92.16 230.4 177.92 230.4 2.227 0.149 4.827 0.234 7.448 0.234 18.707 0 36.4-4.338 52.129-12.064l-0.697 0.309-14.080-72.32c-10.61 5.683-23.21 9.021-36.59 9.021-1.087 0-2.168-0.022-3.244-0.066l0.154 0.005c-48.64 0-92.16-42.24-92.16-151.040s39.68-146.56 92.16-146.56c14.701 0.108 28.768 2.678 41.855 7.317l-0.895-0.277zM260.48 111.36l-34.56-175.36h-144.64l166.4 768h179.2l149.12-768h-144.64l-33.28 175.36zM384 227.84l-24.32 160.64c-8.32 46.72-18.56 123.52-24.96 174.080h-3.84c-7.68-51.2-19.2-128-26.88-175.36l-28.8-159.36zM704 951.68c26.809 5.343 57.631 8.4 89.167 8.4 3.078 0 6.149-0.029 9.214-0.087l-0.46 0.007c4.294 0.397 9.286 0.623 14.331 0.623 36.744 0 70.686-12.002 98.117-32.3l-0.448 0.317c20.907-18.718 34.002-45.79 34.002-75.921 0-1.435-0.030-2.862-0.088-4.283l0.007 0.203c0.014-0.636 0.022-1.385 0.022-2.136 0-42.607-26.186-79.099-63.342-94.258l-0.68-0.245c44.632-13.256 76.629-53.906 76.629-102.030 0-3.511-0.17-6.981-0.503-10.405l0.034 0.435c0.059-1.393 0.092-3.028 0.092-4.671 0-31.716-12.47-60.519-32.775-81.774l0.043 0.045c-32.674-28.657-75.769-46.139-122.948-46.139-7.871 0-15.628 0.487-23.243 1.431l0.91-0.092c-28.552 1.089-55.461 3.841-81.831 8.191l3.751-0.511zM789.76 776.32h18.56c30.533 1.172 54.842 26.207 54.842 56.921 0 2.496-0.16 4.954-0.472 7.364l0.030-0.285c0 32-14.72 56.96-50.56 56.96-3.366 0.541-7.247 0.85-11.2 0.85s-7.834-0.309-11.62-0.904l0.42 0.054zM789.76 579.84c2.88-0.336 6.218-0.527 9.6-0.527s6.719 0.191 10.002 0.564l-0.402-0.037c1.188-0.084 2.574-0.131 3.971-0.131 33.225 0 60.16 26.935 60.16 60.16 0 1.397-0.048 2.783-0.141 4.157l0.010-0.186c0.073 1.148 0.115 2.489 0.115 3.84 0 35.346-28.654 64-64 64-0.041 0-0.081 0-0.122 0h-18.554z" />
<glyph unicode="&#xe91d;" glyph-name="numeric" d="M286.080 558.72v0l-128-67.2-30.080 121.6 176 90.88h135.68v-768h-153.6zM657.92 24.96c18.414-10.586 40.429-16.957 63.906-17.279l0.094-0.001c1.188-0.084 2.574-0.131 3.971-0.131 33.225 0 60.16 26.935 60.16 60.16 0 1.397-0.048 2.783-0.141 4.157l0.010-0.186c0 48.64-37.12 69.12-81.92 69.12h-12.16v64h12.16c32.64 0 74.24 14.080 74.24 56.96 0.076 1.007 0.12 2.181 0.12 3.366 0 26.156-21.204 47.36-47.36 47.36-1.394 0-2.774-0.060-4.137-0.178l0.177 0.012c-20.618-0.825-39.547-7.403-55.413-18.158l0.373 0.238-11.52 64c25.66 15.357 56.447 24.761 89.364 25.595l0.236 0.005c3.269 0.363 7.058 0.571 10.896 0.571 57.614 0 104.32-46.706 104.32-104.32 0-0.651-0.006-1.3-0.018-1.948l0.001 0.097c0.001-0.13 0.001-0.284 0.001-0.438 0-43.402-26.026-80.725-63.322-97.214l-0.679-0.268c44-15.085 75.064-56.096 75.064-104.362 0-2.237-0.067-4.458-0.198-6.661l0.014 0.303c-0.142-74.12-60.26-134.151-134.4-134.151-3.604 0-7.175 0.142-10.707 0.42l0.467-0.030c-0.794-0.012-1.732-0.019-2.671-0.019-30.462 0-59.267 7.094-84.854 19.72l1.125-0.502zM640 512v60.16l44.16 56.32c57.6 72.96 104.32 133.12 104.32 196.48 0.244 1.936 0.384 4.176 0.384 6.449 0 30.044-24.356 54.4-54.4 54.4-0.81 0-1.616-0.018-2.418-0.053l0.114 0.004c-24.109-1.703-46.027-9.836-64.415-22.675l0.415 0.275-18.56 69.12c28.121 17.202 62.137 27.424 98.533 27.52h0.027c3.43 0.357 7.411 0.56 11.44 0.56 64.684 0 117.12-52.436 117.12-117.12 0-4.029-0.203-8.010-0.601-11.934l0.040 0.494c-8.51-82.881-46.107-155.671-102.263-209.15l-0.137-0.13-26.88-31.36h135.68v-79.36z" />
<glyph unicode="&#xe91e;" glyph-name="unknown" d="M310.4 128c-53.019 0-96-42.981-96-96s42.981-96 96-96c53.019 0 96 42.981 96 96v0c0 53.019-42.981 96-96 96v0zM325.76 704c-3.5 0.159-7.603 0.25-11.728 0.25-98.81 0-185.457-52.075-233.994-130.277l-0.678-1.173-15.36-21.76 106.24-81.28 16 21.12c25.986 44.937 73.356 74.969 127.833 76.157l0.167 0.003c51.84 0 108.8-33.28 108.8-80.64s-35.2-59.52-75.52-82.56h-3.84c-49.92-28.16-112-64-113.28-145.92v-64h161.28v56.96c0 27.52 30.080 44.16 64 64 68.603 28.057 116.772 92.789 120.304 169.177l0.016 0.423c0 125.44-131.84 219.52-250.24 219.52zM783.36 48c-31.105 0-56.32-25.215-56.32-56.32s25.215-56.32 56.32-56.32c31.105 0 56.32 25.215 56.32 56.32v0c0.002 0.191 0.004 0.417 0.004 0.644 0 30.751-24.929 55.68-55.68 55.68-0.226 0-0.452-0.001-0.678-0.004h0.034zM792.96 384c-2.159 0.104-4.69 0.164-7.234 0.164-57.67 0-108.213-30.511-136.369-76.271l-0.397-0.693-8.96-12.8 64-46.72 9.6 12.16c14.9 26.226 42.478 43.73 74.18 44.159l0.060 0.001c30.080 0 64-19.2 64-47.36s-20.48-34.56-44.16-48v0c-29.44-16.64-64-37.12-64-85.12v-37.76h88.32v33.28c0 16 17.28 25.6 36.48 37.12 40.574 16.157 69.008 54.51 70.396 99.671l0.004 0.169c-8.311 72.358-69.21 128.027-143.111 128.027-0.988 0-1.973-0.010-2.956-0.030l0.147 0.002zM783.36 624c-31.105 0-56.32-25.215-56.32-56.32s25.215-56.32 56.32-56.32c31.105 0 56.32 25.215 56.32 56.32v0c0.002 0.191 0.004 0.417 0.004 0.644 0 30.751-24.929 55.68-55.68 55.68-0.226 0-0.452-0.001-0.678-0.004h0.034zM792.96 960c-2.159 0.104-4.69 0.164-7.234 0.164-57.67 0-108.213-30.511-136.369-76.271l-0.397-0.693-8.96-12.8 64-46.72 9.6 12.16c14.9 26.226 42.478 43.73 74.18 44.159l0.060 0.001c30.080 0 64-19.2 64-47.36s-20.48-34.56-44.16-48v0c-29.44-16.64-64-37.12-64-85.12v-37.76h88.32v32.64c0 16 17.28 25.6 36.48 37.12 40.764 16.241 69.274 54.894 70.397 100.343l0.003 0.137c-8.311 72.358-69.21 128.027-143.111 128.027-0.988 0-1.973-0.010-2.956-0.030l0.147 0.002z" />
<glyph unicode="&#xe91f;" glyph-name="dots-alphanumeric" d="M308.907 766.293c0 6.827-3.413 12.373-4.267 16.213-3.84-14.080-14.507-49.067-31.573-105.387h63.573c-16.64 52.48-25.6 82.347-27.733 89.173zM308.48 960c-148.925 0-269.653-120.728-269.653-269.653s120.728-269.653 269.653-269.653c148.925 0 269.653 120.728 269.653 269.653v0c0 148.925-120.728 269.653-269.653 269.653v0zM366.507 576l-17.92 58.027h-88.747l-17.493-58.027h-55.893l85.333 244.48h64l86.187-244.48zM725.333 424.533h-32v-61.867h32c1.27-0.12 2.747-0.188 4.24-0.188 10.049 0 19.373 3.102 27.068 8.4l-0.161-0.105c6.344 5.653 10.319 13.846 10.319 22.968 0 0.776-0.029 1.545-0.085 2.307l0.006-0.102c1.28 18.347-13.227 28.587-41.387 28.587zM753.067 471.893c5.817 4.406 9.535 11.318 9.535 19.098 0 0.938-0.054 1.863-0.159 2.773l0.010-0.111c0.036 0.466 0.056 1.010 0.056 1.558 0 7.772-4.075 14.593-10.205 18.442l-0.091 0.053c-8.286 3.855-17.988 6.103-28.215 6.103-1.482 0-2.953-0.047-4.411-0.14l0.199 0.010h-26.88v-54.187h29.867c1.322-0.115 2.86-0.18 4.413-0.18 9.487 0 18.404 2.438 26.159 6.721l-0.279-0.141zM725.333 715.093c-30.587-0.059-59.915-5.368-87.158-15.074l1.824 0.567c0-3.413 0-6.827 0-10.24-0.080-126.934-72.040-237.042-177.376-291.83l-1.824-0.863c23.481-126.971 133.351-221.865 265.385-221.865 148.925 0 269.653 120.728 269.653 269.653s-120.728 269.653-269.653 269.653c-0.3 0-0.599 0-0.898-0.001h0.046zM797.867 337.067c-16.802-11.835-37.695-18.915-60.241-18.915-1.922 0-3.833 0.051-5.73 0.153l0.265-0.011h-92.16v243.627h76.8c3.204 0.246 6.939 0.386 10.706 0.386 23.582 0 45.88-5.498 65.683-15.281l-0.869 0.388c14.282-9.436 23.575-25.419 23.575-43.572 0-1.183-0.039-2.356-0.117-3.519l0.008 0.158c0.032-0.732 0.051-1.59 0.051-2.453 0-12.469-3.848-24.039-10.421-33.587l0.13 0.2c-6.434-8.839-16.006-15.058-27.048-17.028l-0.258-0.038c13.526-2.165 25.121-9.149 33.202-19.101l0.078-0.099c6.462-9.746 10.31-21.714 10.31-34.58 0-1.044-0.025-2.081-0.075-3.112l0.006 0.145c0.098-1.311 0.153-2.84 0.153-4.382 0-19.987-9.349-37.791-23.913-49.277l-0.133-0.101zM420.267 317.013c-7.248 16.209-13.563 35.308-17.965 55.128l-0.382 2.045c-28.225-8.786-60.677-13.846-94.31-13.846-66.825 0-128.984 19.977-180.831 54.286l1.221-0.759c-60.397-49.826-98.602-124.68-98.602-208.457 0-148.925 120.728-269.653 269.653-269.653 132.122 0 242.050 95.021 265.175 220.452l0.254 1.658c-28.601 15.753-53.172 34.477-74.625 56.278l-0.041 0.042c-28.879 28.716-52.34 62.843-68.742 100.738l-0.805 2.089zM301.653 100.267c22.526 1.096 43.634 5.854 63.176 13.69l-1.31-0.464v-42.667c-19.135-8.318-41.42-13.178-64.835-13.227h-0.018c-1.999-0.14-4.332-0.219-6.683-0.219-29.31 0-55.732 12.366-74.334 32.165l-0.050 0.054c-17.746 22.913-28.447 52.061-28.447 83.709 0 3.123 0.104 6.222 0.309 9.294l-0.022-0.416c-0.022 0.972-0.035 2.118-0.035 3.267 0 22.941 5.043 44.704 14.082 64.241l-0.393-0.948c9.015 17.956 22.582 32.482 39.213 42.409l0.467 0.258c16.729 9.681 36.803 15.393 58.211 15.393 0.985 0 1.968-0.012 2.948-0.036l-0.145 0.003c26.011-0.503 50.447-6.747 72.252-17.513l-0.999 0.446-16.64-42.667c-8.96 4.267-18.347 8.107-27.733 11.52-7.994 2.862-17.218 4.571-26.824 4.693l-0.056 0.001c-1.871 0.237-4.037 0.372-6.234 0.372-16.86 0-31.862-7.95-41.464-20.306l-0.089-0.119c-10.264-15.77-16.368-35.066-16.368-55.787 0-1.988 0.056-3.964 0.167-5.925l-0.012 0.272c0.427-54.187 20.907-81.493 61.867-81.493z" />
<glyph unicode="&#xe920;" glyph-name="dots-numeric" d="M420.267 317.013c-7.248 16.209-13.563 35.308-17.965 55.128l-0.382 2.045c-28.225-8.786-60.677-13.846-94.31-13.846-66.825 0-128.984 19.977-180.831 54.286l1.221-0.759c-60.397-49.826-98.602-124.68-98.602-208.457 0-148.925 120.728-269.653 269.653-269.653 132.122 0 242.050 95.021 265.175 220.452l0.254 1.658c-28.601 15.753-53.172 34.477-74.625 56.278l-0.041 0.042c-28.879 28.716-52.34 62.843-68.742 100.738l-0.805 2.089zM325.12 57.173h-56.32v187.733l-37.973-28.587-25.6 42.667 69.547 51.2h50.347zM725.333 715.093c-30.587-0.059-59.915-5.368-87.158-15.074l1.824 0.567c0-3.413 0-6.827 0-10.24-0.080-126.934-72.040-237.042-177.376-291.83l-1.824-0.863c23.481-126.971 133.351-221.865 265.385-221.865 148.925 0 269.653 120.728 269.653 269.653s-120.728 269.653-269.653 269.653c-0.3 0-0.599 0-0.898-0.001h0.046zM800.853 477.867c-2.397-7.865-5.295-14.65-8.817-21.042l0.284 0.562c-4.161-7.234-8.25-13.365-12.693-19.213l0.32 0.439-14.080-17.067-49.067-55.040h82.347v-49.493h-150.613v50.773l76.8 89.173c5.721 6.308 10.693 13.459 14.674 21.204l0.26 0.556c3.073 6.367 4.943 13.824 5.119 21.699l0.001 0.061c0.016 0.388 0.025 0.843 0.025 1.301 0 6.634-1.917 12.821-5.227 18.037l0.081-0.137c-3.34 4.933-8.917 8.132-15.24 8.132-0.342 0-0.682-0.009-1.020-0.028l0.047 0.002c-0.064 0.001-0.139 0.001-0.214 0.001-7.020 0-13.263-3.324-17.242-8.484l-0.038-0.051c-4.786-6.948-7.768-15.468-8.104-24.663l-0.002-0.084-54.187 5.12c1.057 22.908 10.993 43.308 26.418 57.993l0.035 0.033c13.929 11.457 31.945 18.403 51.583 18.403 1.066 0 2.127-0.020 3.183-0.061l-0.152 0.005c0.382 0.006 0.833 0.010 1.285 0.010 10.887 0 21.297-2.039 30.871-5.755l-0.582 0.199c9.33-3.353 17.308-8.447 23.901-14.941l-0.008 0.008c6.468-6.67 11.67-14.611 15.188-23.407l0.172-0.486c3.249-8.919 5.128-19.215 5.128-29.95 0-0.421-0.003-0.841-0.009-1.26l0.001 0.064c0.051-1.088 0.081-2.364 0.081-3.646 0-6.729-0.807-13.27-2.33-19.53l0.116 0.563zM308.48 960c-148.925 0-269.653-120.728-269.653-269.653s120.728-269.653 269.653-269.653c148.925 0 269.653 120.728 269.653 269.653v0c0 148.925-120.728 269.653-269.653 269.653v0zM380.16 606.293c-3.959-9.745-9.757-18.008-17.020-24.704l-0.047-0.043c-6.915-6.767-15.336-12.025-24.711-15.223l-0.463-0.137c-8.991-3.518-19.402-5.556-30.289-5.556-0.452 0-0.902 0.004-1.352 0.011l0.068-0.001c-0.995-0.040-2.164-0.063-3.338-0.063-18.673 0-35.999 5.767-50.294 15.617l0.298-0.194c-15.309 11.659-26.026 28.663-29.375 48.185l-0.065 0.455 50.347 12.8c2.208-7.247 5.719-13.516 10.297-18.842l-0.057 0.068c4.653-4.761 11.139-7.714 18.315-7.714 0.461 0 0.92 0.012 1.375 0.036l-0.064-0.003c0.272-0.012 0.591-0.019 0.911-0.019 4.069 0 7.877 1.117 11.135 3.061l-0.1-0.055c3.296 1.015 6.146 2.624 8.563 4.718l-0.029-0.025c2.069 3.069 3.806 6.602 5.035 10.365l0.085 0.302c0.198 1.792 0.311 3.869 0.311 5.973s-0.113 4.182-0.333 6.227l0.022-0.254c0.049 0.649 0.077 1.405 0.077 2.167 0 8.918-3.8 16.949-9.869 22.561l-0.020 0.019c-6.352 4.828-14.393 7.735-23.114 7.735-0.725 0-1.444-0.020-2.159-0.060l0.099 0.004h-12.8v42.667h17.067c0.646-0.052 1.399-0.082 2.159-0.082 7.802 0 14.874 3.125 20.032 8.192l-0.004-0.004c4.818 5.945 7.735 13.602 7.735 21.941 0 0.687-0.020 1.369-0.059 2.046l0.004-0.094c0 0.024 0 0.051 0 0.079 0 6.81-2.072 13.137-5.621 18.383l0.074-0.116c-3.671 5.219-9.668 8.587-16.452 8.587-0.517 0-1.029-0.020-1.536-0.058l0.067 0.004c-0.168 0.005-0.366 0.007-0.565 0.007-6.177 0-11.741-2.625-15.636-6.821l-0.012-0.013c-3.67-4.995-6.589-10.817-8.434-17.098l-0.1-0.395-50.347 14.080c4.442 19.373 15.447 35.66 30.502 46.78l0.218 0.154c6.449 4.679 13.99 8.342 22.129 10.554l0.484 0.112c7.723 2.434 16.604 3.837 25.813 3.837s18.090-1.403 26.442-4.006l-0.629 0.169c9.010-2.997 16.81-7.355 23.598-12.904l-0.131 0.104c7.075-5.912 12.82-13.157 16.895-21.377l0.172-0.383c3.801-8.177 6.018-17.751 6.018-27.842 0-0.862-0.016-1.721-0.048-2.575l0.004 0.123c0.028-0.735 0.043-1.598 0.043-2.464 0-12.921-3.502-25.023-9.609-35.411l0.178 0.328c-5.721-9.401-14.46-16.48-24.848-19.959l-0.325-0.094c12.144-3.403 22.206-10.832 28.898-20.726l0.115-0.181c6.697-9.74 10.697-21.789 10.697-34.772 0-0.676-0.011-1.349-0.032-2.019l0.002 0.098c0.050-1.090 0.078-2.368 0.078-3.653 0-11.766-2.381-22.976-6.688-33.174l0.21 0.56z" />
<glyph unicode="&#xe921;" glyph-name="dots-unknown" d="M308.48 960c-148.925 0-269.653-120.728-269.653-269.653s120.728-269.653 269.653-269.653c148.925 0 269.653 120.728 269.653 269.653v0c0 148.925-120.728 269.653-269.653 269.653v0zM325.547 568.32c-5.942-5.928-14.144-9.593-23.202-9.593-1.296 0-2.575 0.075-3.831 0.221l0.153-0.014c-0.614-0.039-1.331-0.062-2.054-0.062-8.93 0-17.059 3.429-23.143 9.043l0.023-0.021c-5.834 5.862-9.441 13.946-9.441 22.872 0 0.659 0.020 1.314 0.058 1.964l-0.004-0.089c-0.014 0.363-0.022 0.79-0.022 1.219 0 9.765 4.1 18.571 10.673 24.793l0.016 0.015c6.384 5.338 14.681 8.58 23.735 8.58 0.656 0 1.308-0.017 1.955-0.051l-0.091 0.004c0.746 0.058 1.616 0.091 2.493 0.091 8.722 0 16.68-3.271 22.714-8.654l-0.034 0.029c5.837-6.471 9.408-15.085 9.408-24.533s-3.571-18.062-9.436-24.566l0.029 0.033zM381.44 721.067c-9.189-12.47-20.218-22.955-32.803-31.277l-0.477-0.297c-7.147-4.812-13.317-10.305-18.672-16.52l-0.101-0.12c-2.050-3.28-3.306-7.243-3.413-11.491l-0.001-0.029v-17.067h-55.040v17.067c-0.011 0.421-0.017 0.917-0.017 1.414 0 10.628 2.857 20.589 7.846 29.156l-0.149-0.276c7.218 10.599 16.002 19.518 26.128 26.662l0.325 0.218c8.536 5.394 15.846 11.755 22.075 19.066l0.112 0.134c2.678 3.851 4.278 8.627 4.278 13.776 0 0.257-0.004 0.513-0.012 0.768l0.001-0.037c0.020 0.28 0.032 0.607 0.032 0.937 0 4.503-2.18 8.497-5.542 10.984l-0.037 0.026c-5.001 2.977-11.027 4.737-17.464 4.737-0.611 0-1.218-0.016-1.821-0.047l0.084 0.003c-20.215-0.929-38.905-6.671-55.196-16.098l0.583 0.311-5.12-2.56-22.613 46.933 4.267 2.56c23.463 13.381 51.55 21.288 81.48 21.333h0.013c1.318 0.069 2.861 0.108 4.414 0.108 20.177 0 38.81-6.606 53.856-17.773l-0.243 0.172c13.595-11.039 22.212-27.752 22.212-46.478 0-0.61-0.009-1.218-0.027-1.824l0.002 0.089c0.011-0.453 0.018-0.987 0.018-1.522 0-12.18-3.336-23.581-9.143-33.338l0.165 0.3zM725.333 715.093c-30.587-0.059-59.915-5.368-87.158-15.074l1.824 0.567c0-3.413 0-6.827 0-10.24-0.080-126.934-72.040-237.042-177.376-291.83l-1.824-0.863c23.481-126.971 133.351-221.865 265.385-221.865 148.925 0 269.653 120.728 269.653 269.653s-120.728 269.653-269.653 269.653c-0.3 0-0.599 0-0.898-0.001h0.046zM745.387 317.44c-6.792-5.607-15.585-9.007-25.173-9.007s-18.382 3.401-25.241 9.062l0.067-0.054c-5.838 5.799-9.452 13.83-9.452 22.706 0 0.718 0.024 1.43 0.070 2.136l-0.005-0.096c-0.043 0.632-0.068 1.369-0.068 2.112 0 8.988 3.61 17.134 9.458 23.066l-0.004-0.004c6.22 5.336 14.367 8.584 23.272 8.584 0.669 0 1.333-0.018 1.993-0.054l-0.092 0.004c0.614 0.039 1.331 0.062 2.054 0.062 8.93 0 17.059-3.429 23.143-9.043l-0.023 0.021c5.838-5.799 9.452-13.83 9.452-22.706 0-0.718-0.024-1.43-0.070-2.136l0.005 0.096c-0.018-9.82-4.286-18.639-11.062-24.719l-0.031-0.027zM801.28 470.613c-8.923-12.708-20.005-23.246-32.808-31.297l-0.472-0.277c-7.147-4.812-13.317-10.305-18.672-16.52l-0.101-0.12c-2.152-3.556-3.426-7.852-3.426-12.446 0-0.275 0.005-0.548 0.014-0.82l-0.001 0.040v-15.36h-56.32v17.493c-0.010 0.42-0.016 0.915-0.016 1.411 0 10.722 2.691 20.816 7.434 29.644l-0.164-0.335c7.218 10.599 16.002 19.518 26.128 26.662l0.325 0.218c8.536 5.394 15.846 11.755 22.075 19.066l0.112 0.134c2.672 3.804 4.271 8.532 4.271 13.633 0 0.157-0.002 0.314-0.005 0.471v-0.023c0.019 0.281 0.031 0.61 0.031 0.941 0 4.63-2.169 8.753-5.546 11.409l-0.031 0.024c-4.893 2.988-10.813 4.757-17.146 4.757-0.723 0-1.44-0.023-2.151-0.068l0.097 0.005c-20.211-1.195-38.852-6.902-55.257-16.119l0.644 0.332-4.693-2.56-23.040 46.080 4.693 2.56c23.323 13.383 51.267 21.292 81.054 21.333h0.012c1.356 0.074 2.944 0.117 4.541 0.117 20.2 0 38.816-6.781 53.696-18.192l-0.21 0.155c14.804-10.74 24.321-27.985 24.321-47.453 0-0.117 0-0.235-0.001-0.352v0.018c-0.308-12.942-4.411-24.868-11.234-34.776l0.14 0.216zM420.267 317.013c-7.248 16.209-13.563 35.308-17.965 55.128l-0.382 2.045c-28.225-8.786-60.677-13.846-94.31-13.846-66.825 0-128.984 19.977-180.831 54.286l1.221-0.759c-60.397-49.826-98.602-124.68-98.602-208.457 0-148.925 120.728-269.653 269.653-269.653 132.122 0 242.050 95.021 265.175 220.452l0.254 1.658c-28.601 15.753-53.172 34.477-74.625 56.278l-0.041 0.042c-28.879 28.716-52.34 62.843-68.742 100.738l-0.805 2.089zM312.747 61.013c-6.111-5.824-14.403-9.408-23.532-9.408-0.427 0-0.852 0.008-1.276 0.023l0.061-0.002c-0.596-0.036-1.292-0.056-1.993-0.056-9.085 0-17.371 3.421-23.64 9.045l0.033-0.029c-5.824 6.111-9.408 14.403-9.408 23.532 0 0.427 0.008 0.852 0.023 1.276l-0.002-0.061c-0.030 0.533-0.047 1.158-0.047 1.786 0 9.088 3.596 17.336 9.444 23.398l-0.010-0.010c6.278 5.346 14.482 8.597 23.445 8.597 0.758 0 1.511-0.023 2.257-0.069l-0.102 0.005c0.536 0.029 1.164 0.046 1.796 0.046 8.801 0 16.843-3.25 22.992-8.615l-0.042 0.035c5.845-5.928 9.455-14.073 9.455-23.062 0-0.743-0.025-1.48-0.073-2.211l0.005 0.099c0.068-0.78 0.108-1.687 0.108-2.604 0-8.841-3.634-16.833-9.489-22.564l-0.006-0.005zM368.64 213.76c-9.074-12.447-19.961-22.927-32.394-31.283l-0.459-0.291c-7.44-4.587-13.78-10.111-19.098-16.514l-0.102-0.126c-2.159-3.443-3.44-7.628-3.44-12.112 0-0.392 0.010-0.782 0.029-1.169l-0.002 0.054v-15.36h-54.613v17.92c-0.011 0.421-0.017 0.917-0.017 1.414 0 10.628 2.857 20.589 7.846 29.156l-0.149-0.276c6.975 10.789 15.805 19.755 26.124 26.672l0.329 0.208c8.335 5.468 15.497 11.817 21.641 19.057l0.119 0.143c2.933 4.017 4.693 9.053 4.693 14.5 0 0.002 0 0.004 0 0.007v0c0.018 0.259 0.028 0.562 0.028 0.868 0 4.618-2.366 8.683-5.952 11.048l-0.050 0.031c-4.893 2.988-10.813 4.757-17.146 4.757-0.723 0-1.44-0.023-2.151-0.068l0.097 0.005c-20.215-0.929-38.905-6.671-55.196-16.098l0.583 0.311-4.693-2.133-21.333 44.8 4.693 2.56c23.219 13.244 50.987 21.131 80.58 21.333h0.060c1.316 0.069 2.857 0.109 4.407 0.109 20.039 0 38.534-6.61 53.424-17.768l-0.232 0.166c13.836-10.876 22.641-27.613 22.641-46.407 0-0.635-0.010-1.268-0.030-1.899l0.002 0.092c-0.111-12.843-3.913-24.776-10.395-34.817l0.155 0.257z" />
<glyph unicode="&#xe922;" glyph-name="marker" d="M761.28 448v512h-512v-512h246.72v-386.24c-27.823-7.359-48-32.307-48-61.968 0-35.346 28.654-64 64-64s64 28.654 64 64c0 29.66-20.177 54.608-47.553 61.867l-0.447 0.101v386.24z" />
<glyph unicode="&#xe923;" glyph-name="chart-range" d="M0 704h1024v-512h-1024v512z" />
<glyph unicode="&#xe924;" glyph-name="chart-alarm" d="M256 960h512v-1024h-512v1024z" />
<glyph unicode="&#xe925;" glyph-name="chart-boxplot" d="M256 960h512v-85.76h-512v85.76zM256 21.76h512v-85.76h-512v85.76zM469.76 960h85.76v-1024h-85.76v1024zM170.24 746.24h682.24v-597.76h-682.24v597.76z" />
<glyph unicode="&#xe926;" glyph-name="chart-triangle" d="M0 0l510.72 896 513.28-896h-1024z" />
<glyph unicode="&#xe927;" glyph-name="chart-triangle-down" d="M1024 896l-510.72-896-513.28 896h1024z" />
<glyph unicode="&#xe928;" glyph-name="chart-circle" d="M960 448c0-247.424-200.576-448-448-448s-448 200.576-448 448c0 247.424 200.576 448 448 448s448-200.576 448-448z" />
<glyph unicode="&#xe929;" glyph-name="chart-cross" d="M965.12 719.36l-181.76 181.76-271.36-272.64-271.36 272.64-181.76-181.76 272.64-271.36-272.64-271.36 181.76-181.76 271.36 272.64 271.36-272.64 181.76 181.76-272.64 271.36 272.64 271.36z" />
<glyph unicode="&#xe92a;" glyph-name="chart-empty" d="M512 704c141.385 0 256-114.615 256-256s-114.615-256-256-256c-141.385 0-256 114.615-256 256v0c0 141.385 114.615 256 256 256v0zM512 896c-247.424 0-448-200.576-448-448s200.576-448 448-448c247.424 0 448 200.576 448 448v0c0 247.424-200.576 448-448 448v0zM52.713 79.626l827.258 827.258 90.51-90.51-827.258-827.258-90.51 90.51z" />
<glyph unicode="&#xe92b;" glyph-name="chart-plus" d="M640 576v384h-256v-384h-384v-256h384v-384h256v384h384v256h-384z" />
<glyph unicode="&#xe92c;" glyph-name="chart-diamond" d="M510.19 960.687l514.095-514.095-510.475-510.475-514.095 514.095 510.475 510.475z" />
<glyph unicode="&#xe92d;" glyph-name="chart-star" d="M512 176.64l316.16-240.64-120.32 391.68 316.16 231.68h-384l-128 400.64-128-400.64h-384l316.16-231.68-120.32-391.68z" />
<glyph unicode="&#xe92e;" glyph-name="chart-square" d="M128 832h768v-768h-768v768z" />
<glyph unicode="&#xe92f;" glyph-name="align-down" d="M128 384v128h768v-128h-768zM512 789.12l-170.88 170.88-85.12-85.12 256-256 256 256-85.12 85.12-170.88-170.88zM512 106.88l170.88-170.88 85.12 85.12-256 256-256-256 85.12-85.12 170.88 170.88z" />
<glyph unicode="&#xe930;" glyph-name="align-up" d="M128 384v128h768v-128h-768zM512 789.76l170.88-170.88 24.96 24.96v-0.64l60.16 60.8-256 256-256-256 60.16-60.8v0.64l24.96-24.96 170.88 170.88zM512 106.24l-170.88 170.88-24.96-24.96v0.64l-60.16-60.8 256-256 256 256-60.16 60.8v-0.64l-24.96 24.96-170.88-170.88z" />
<glyph unicode="&#xe931;" glyph-name="filter-on" d="M256 704c70.692 0 128 57.308 128 128s-57.308 128-128 128v0c-46.831-0.292-87.665-25.687-109.753-63.396l-0.327-0.604h-145.92v-128h145.92c22.415-38.313 63.249-63.708 110.038-64h0.042zM512 896h512v-128h-512v128zM256 192c-46.831-0.292-87.665-25.687-109.753-63.396l-0.327-0.604h-145.92v-128h145.92c22.415-38.313 63.249-63.708 110.038-64h0.042c70.692 0 128 57.308 128 128s-57.308 128-128 128v0zM512 128h512v-128h-512v128zM768 576c-70.692 0-128-57.308-128-128s57.308-128 128-128v0c46.831 0.292 87.665 25.687 109.753 63.396l0.327 0.604h145.92v128h-145.92c-22.415 38.313-63.249 63.708-110.038 64h-0.042zM0 512h512v-128h-512v128z" />
<glyph unicode="&#xe932;" glyph-name="settings" d="M28.16 99.84c-17.503-17.297-28.343-41.302-28.343-67.84s10.84-50.543 28.334-67.831l0.009-0.009c17.368-17.347 41.351-28.076 67.84-28.076s50.472 10.728 67.841 28.077l314.879 314.879-135.68 135.68zM815.36 683.52l136.96 71.040 71.68 141.44-64 64-141.44-71.68-71.040-136.96-167.040-167.040 67.84-67.84zM844.8 320h-12.8c-23.122-0.26-45.081-4.938-65.17-13.227l1.17 0.427-396.16 396.8c7.66 18.965 12.122 40.956 12.16 63.984v12.816c-6.911 100.386-90.038 179.2-191.573 179.2-0.15 0-0.3 0-0.45-0.001h0.023c-29.632-0.154-57.576-7.228-82.347-19.686l1.067 0.486 128-128c6.095-6.39 10.895-14.074 13.941-22.593l0.139-0.447c2.416-6.475 3.814-13.955 3.814-21.763 0-35.346-28.654-64-64-64-0.216 0-0.431 0.001-0.647 0.003h0.033c-7.889 0.232-15.334 1.856-22.189 4.634l0.429-0.154c-9.059 3.201-16.775 8.239-23.024 14.703l-0.016 0.017-128 128c-12.042-24.307-19.12-52.917-19.2-83.173v-0.027c0-0.127 0-0.277 0-0.427 0-101.535 78.814-184.662 178.603-191.54l0.598-0.033h12.8c23.17 0.635 45.076 5.276 65.302 13.252l-1.302-0.452 396.8-396.8c-7.524-18.924-12.165-40.829-12.794-63.737l-0.006-0.263v-12.8c6.911-100.386 90.038-179.2 191.573-179.2 0.15 0 0.3 0 0.45 0.001h-0.023c29.924 0.503 58.035 7.775 83.024 20.343l-1.104-0.503-128 128c-6.271 6.187-11.267 13.649-14.568 21.967l-0.152 0.433c-2.416 6.475-3.814 13.955-3.814 21.763 0 35.346 28.654 64 64 64 0.216 0 0.431-0.001 0.647-0.003h-0.033c0.12 0.001 0.263 0.002 0.405 0.002 7.727 0 15.068-1.65 21.692-4.616l-0.337 0.135c8.966-3.185 16.65-7.985 23.065-14.104l-0.025 0.024 128-128c12.109 23.977 19.2 52.266 19.2 82.21 0 0.123 0 0.246 0 0.369v-0.019c0 0.127 0 0.277 0 0.427 0 101.535-78.814 184.662-178.603 191.54l-0.598 0.033z" />
<glyph unicode="&#xe933;" glyph-name="undo" d="M1024 448v0c0.004 0.781 0.007 1.706 0.007 2.63 0 264.514-200.587 482.179-457.95 509.181l-2.217 0.189h-51.84c-22.66-0.097-44.85-1.722-66.581-4.777l2.581 0.297h-16.64c-15.36-5.12-31.36-8.32-47.36-12.16h-12.8c-23.29-6.583-42.637-13.561-61.369-21.689l3.129 1.209h-5.12c-20.181-10.272-37.144-20.475-53.341-31.705l1.501 0.985-9.6-5.76c-33.3-20.711-62.211-43.312-88.481-68.634l0.161 0.154-158.080 142.080v-426.88h426.88l-147.84 163.84c60.808 56.979 142.818 91.975 233.001 91.975 188.395 0 341.12-152.725 341.12-341.12s-152.725-341.12-341.12-341.12c-94.254 0-179.58 38.227-241.319 100.022l-0.002 0.002-103.040-103.040-16.64-17.28 16.64-15.36 9.6-7.68c5.12-5.12 10.88-8.96 16-13.44l21.76-16 17.28-12.16 23.040-14.080 18.56-10.24 24.32-11.52 19.2-8.96 26.24-9.6 19.2-6.4 28.8-7.040 19.2-5.12 32.64-4.48h16.64c14.328-3.386 31.989-6.319 49.972-8.165l1.868-0.155c125.61 0.005 240.653 45.243 329.73 120.312l-0.77-0.632c95.028 80.334 160.095 193.512 177.623 321.823l0.297 2.657c3.165 20.318 5.023 43.821 5.12 67.738v0.102z" />
<glyph unicode="&#xe934;" glyph-name="calendar" d="M828.893 855.625v-135.297c0-18.826-17.028-34.116-38.013-34.116h-114.049c-20.976 0-38.013 15.291-38.013 34.116v135.297h-238.707v-134.389c0-19.217-17.39-34.816-38.803-34.816h-116.381c-21.403 0-38.794 15.599-38.794 34.816v134.389h-82.585c-67.591 0-122.465-49.248-122.465-109.91v-696.071c0-60.662 54.874-109.902 122.465-109.902h775.583c67.591 0 122.456 49.24 122.456 109.902v696.071c0 60.662-54.865 109.91-122.456 109.91h-70.239zM914.46 768.033c12.049-3.285 21.561-10.705 21.561-22.319 0 0 0-696.071 0-696.071 0-16.291-18.737-24.337-36.889-24.337h-775.583c-18.161 0-36.898 8.045-36.898 24.337v696.071c0 15.407 16.749 23.436 33.916 24.261v-48.74c0-63.813 53.267-120.39 124.36-120.39h116.381c71.103 0 124.37 56.577 124.37 120.39v48.823c0 0 67.573 0 67.573 0s0-49.732 0-49.732c0-63.422 52.923-119.682 123.58-119.682 0 0 114.049 0 114.049 0 70.666 0 123.58 56.26 123.58 119.682v47.706zM960.946 784.739l-92.381-0.379-17.492-150.56-239.328-0.981-14.626 171.144-167.264-0.687-6.816-171.232-244.852-1.006-29.5 152.551h-84.244l10.245-196.625h882.423l3.836 197.775zM359.968 935.619c0 12.792-10.386 23.175-23.174 23.175h-69.542c-12.794 0-23.181-10.382-23.181-23.175v-181.391c0-12.792 10.386-23.182 23.181-23.182h69.542c12.787 0 23.174 10.389 23.174 23.182v181.391zM791.329 935.619c0 12.792-10.386 23.175-23.174 23.175h-69.542c-12.794 0-23.181-10.382-23.181-23.175v-181.391c0-12.792 10.386-23.182 23.181-23.182h69.542c12.787 0 23.174 10.389 23.174 23.182v181.391zM711.104 514.762h118.962v-118.962h-118.962v118.962zM539.030 514.762h118.962v-118.962h-118.962v118.962zM366.956 514.762h118.962v-118.962h-118.962v118.962zM194.881 514.762h118.962v-118.962h-118.962v118.962zM711.104 358.308h118.962v-118.962h-118.962v118.962zM539.030 358.308h118.962v-118.962h-118.962v118.962zM366.956 358.308h118.962v-118.962h-118.962v118.962zM194.881 358.308h118.962v-118.962h-118.962v118.962zM711.104 201.854h118.962v-118.962h-118.962v118.962zM539.030 201.854h118.962v-118.962h-118.962v118.962zM366.956 201.854h118.962v-118.962h-118.962v118.962zM194.881 201.854h118.962v-118.962h-118.962v118.962z" />
<glyph unicode="&#xe935;" glyph-name="copy" d="M0 576h640v-640h-640v640zM938.88 960h-554.88v-128h512v-512h128v640h-85.12zM746.88 768h-554.88v-128h512v-512h128v640h-85.12z" />
<glyph unicode="&#xe936;" glyph-name="app-parametermonitoring" d="M938.88 960h-853.76c-46.865-0.36-84.76-38.255-85.12-85.086v-597.794c0.36-46.865 38.255-84.76 85.086-85.12h341.794v-128h-170.88v-128h512v128h-170.88v128h341.76c46.865 0.36 84.76 38.255 85.12 85.086v597.794c-0.36 46.865-38.255 84.76-85.086 85.12h-0.034zM896 320h-768v512h768z" />
<glyph unicode="&#xe937;" glyph-name="multi-edit" d="M256 704h128v-128h-128v128zM256 512h128v-128h-128v128zM673.28 588.16l58.88 58.88c10.493 10.337 22.247 19.443 34.997 27.054l0.843 0.466v29.44h-298.88v-128h192zM293.76 207.36l90.24 90.88v21.76h-128v-128h21.76l16 15.36zM597.76 512h-128.64v-128h0.64l128 128zM128 832h768v-128c44.673-5.116 83.901-25.192 113.256-55.015l0.024-0.025 14.72-14.72v325.76h-1024v-1024h256v128h-128zM896 64l-128-128h256v256l-128-128zM718.72 451.84l-334.72-334.72v-181.12h181.12l334.72 334.72-181.12 181.12zM945.28 316.16l58.88 58.24c12.18 12.45 19.696 29.508 19.696 48.32s-7.516 35.869-19.708 48.332l-85.108 85.108c-12.45 12.18-29.508 19.696-48.32 19.696s-35.869-7.516-48.332-19.708l0.012 0.012-58.24-58.88z" />
<glyph unicode="&#xe938;" glyph-name="invisible" d="M862.080 650.88l-108.16-119.68c8.808-24.801 13.897-53.406 13.897-83.2 0-141.321-114.511-255.896-255.807-256h-0.010c-20.473 0.056-40.321 2.62-59.288 7.4l1.688-0.36-70.4-75.52c37.149-10.577 79.815-16.658 123.902-16.658 1.441 0 2.88 0.006 4.318 0.019l-0.22-0.002c341.12 0 512 341.12 512 341.12-43.339 78.829-97.353 145.903-161.117 202.185l-0.803 0.695zM419.84 288.64v0l241.92 267.52 48.64 54.4 83.2 93.44 102.4 113.92-64 56.96-117.76-128c-58.605 26.692-127.102 42.249-199.233 42.249-1.058 0-2.114-0.003-3.17-0.010l0.163 0.001c-341.12 0-512-341.12-512-341.12 56.039-100.58 131.139-184.061 221.071-248.053l2.289-1.547-108.16-119.68 64-56.96 120.96 133.12 71.040 79.36zM308.48 293.12c-32.555 42.492-52.166 96.396-52.166 154.88 0 141.275 114.436 255.821 255.669 256h0.017c49.489-0.012 95.693-14.064 134.849-38.39l-1.089 0.63-49.28-54.4-7.040-12.16c-22.512 11.751-49.108 18.805-77.314 19.199l-0.126 0.001c-29.555-0.198-57.301-7.758-81.553-20.934l0.913 0.454c38.881 0 70.4-31.519 70.4-70.4s-31.519-70.4-70.4-70.4c-38.881 0-70.4 31.519-70.4 70.4v0 0c-12.922-23.159-20.53-50.808-20.53-80.233 0-34.226 10.293-66.047 27.953-92.538l-0.383 0.611-10.88-8.96zM682.88 448c0.15 2.486 0.235 5.393 0.235 8.32s-0.085 5.834-0.254 8.718l0.019-0.398-170.88-187.52c94.228 0.362 170.518 76.652 170.88 170.845v0.035z" />
<glyph unicode="&#xe939;" glyph-name="redo, reload" d="M0 448v0c-0.004 0.781-0.007 1.706-0.007 2.63 0 264.514 200.587 482.179 457.95 509.181l2.217 0.189h51.84c22.66-0.097 44.85-1.722 66.581-4.777l-2.581 0.297h16.64c16.64 0 32.64-5.76 48.64-9.6h12.8c23.29-6.583 42.637-13.561 61.369-21.689l-3.129 1.209h5.12c19.866-8.484 36.263-16.837 52.049-26.117l-2.129 1.157 9.6-5.76c34.081-20.644 63.627-43.267 90.479-68.704l-0.239 0.224 156.8 133.76v-426.88h-426.88l147.84 163.84c-60.808 56.979-142.818 91.975-233.001 91.975-188.395 0-341.12-152.725-341.12-341.12s152.725-341.12 341.12-341.12c94.254 0 179.58 38.227 241.319 100.022l0.002 0.002 101.76-101.76 16.64-17.28-16.64-15.36-9.6-7.68c-5.12-5.12-10.88-8.96-16-13.44l-21.76-16-17.28-12.16-23.040-14.080-18.56-10.24-24.32-11.52-19.2-8.96-26.24-9.6-19.2-6.4-28.8-7.040-19.2-5.12-32.64-4.48h-16.64c-13.71-3.66-30.851-7.022-48.317-9.355l-2.243-0.245c-125.61 0.005-240.653 45.243-329.73 120.312l0.77-0.632c-95.028 80.334-160.095 193.512-177.623 321.823l-0.297 2.657c-3.165 20.318-5.023 43.821-5.12 67.738v0.102z" />
<glyph unicode="&#xe93a;" glyph-name="visible" d="M682.88 448c0-94.374-76.506-170.88-170.88-170.88s-170.88 76.506-170.88 170.88v0c0.198 29.555 7.758 57.301 20.934 81.553l-0.454-0.913c0-38.881 31.519-70.4 70.4-70.4s70.4 31.519 70.4 70.4c0 38.881-31.519 70.4-70.4 70.4v0 0c23.199 12.413 50.733 19.744 79.97 19.84h0.030c94.228-0.362 170.518-76.652 170.88-170.845v-0.035zM512 789.12c-341.12 0-512-341.12-512-341.12s170.88-341.12 512-341.12 512 341.12 512 341.12-170.88 341.12-512 341.12zM512 192c-141.385 0-256 114.615-256 256s114.615 256 256 256c141.385 0 256-114.615 256-256v0c0-141.385-114.615-256-256-256v0z" />
<glyph unicode="&#xe93b;" glyph-name="warning" d="M384 960l32-684.8h192l32 684.8zM512 192c-70.692 0-128-57.308-128-128s57.308-128 128-128c70.692 0 128 57.308 128 128v0c0 70.692-57.308 128-128 128v0z" />
<glyph unicode="&#xe93c;" glyph-name="chart-columnrange" d="M385 960h254v-1024h-254v1024z" />
<glyph unicode="&#xe93d;" glyph-name="axis-auto" d="M725.76 400.64l-32-165.76h-136.96l157.44 725.12h168.96l140.8-725.12h-136.32l-31.36 165.76zM843.52 512l-23.68 151.68c-7.68 44.16-17.28 116.48-23.68 164.48v0c-10.88-49.92-21.76-124.16-28.16-167.040l-28.16-149.12zM0 64h384v-128h-384v128zM0 960h384v-128h-384v128zM0 661.12h256v-128h-256v128zM0 362.88h256v-128h-256v128z" />
<glyph unicode="&#xe93e;" glyph-name="axis-user" d="M598.4 945.92c43.555 9.028 93.609 14.197 144.869 14.197 4.645 0 9.281-0.042 13.906-0.127l-0.695 0.010c6.951 0.643 15.032 1.010 23.198 1.010 59.696 0 114.814-19.599 159.27-52.715l-0.708 0.504c33.523-30.019 54.52-73.432 54.52-121.749 0-2.198-0.043-4.387-0.13-6.564l0.010 0.313c0.009-0.655 0.015-1.427 0.015-2.201 0-69.422-42.677-128.877-103.227-153.559l-1.108-0.4v-3.84c74.316-20.163 128.076-87.013 128.076-166.42 0-1.793-0.027-3.58-0.082-5.36l0.006 0.26c0.092-2.217 0.144-4.819 0.144-7.434 0-51.525-20.296-98.31-53.33-132.796l0.066 0.069c-42.88-46.72-115.2-72.32-235.52-72.32-1-0.003-2.184-0.005-3.368-0.005-43.913 0-87.229 2.559-129.805 7.537l5.174-0.492zM737.28 662.4h30.72c49.458 2.254 88.702 42.899 88.702 92.709 0 2.961-0.139 5.89-0.41 8.78l0.028-0.37c0 51.84-24.32 92.16-81.92 92.16-1.306 0.053-2.838 0.083-4.378 0.083-11.438 0-22.487-1.667-32.917-4.771l0.815 0.208zM737.28 342.4c4.607-0.505 9.95-0.793 15.36-0.793s10.753 0.288 16.014 0.85l-0.654-0.057c2.028-0.151 4.392-0.236 6.777-0.236 53.726 0 97.28 43.554 97.28 97.28 0 3.012-0.137 5.993-0.405 8.935l0.028-0.379c0.215 2.493 0.337 5.395 0.337 8.325 0 56.907-46.133 103.040-103.040 103.040-0.343 0-0.687-0.002-1.029-0.005h-30.028zM0 64h384v-128h-384v128zM0 960h384v-128h-384v128zM0 661.12h256v-128h-256v128zM0 362.88h256v-128h-256v128z" />
<glyph unicode="&#xe93f;" glyph-name="opt-in" d="M256 704h-256v-128h384v384h-128v-256zM608 448c0-53.019-42.981-96-96-96s-96 42.981-96 96c0 53.019 42.981 96 96 96s96-42.981 96-96zM768 192h256v128h-384v-384h128v256z" />
<glyph unicode="&#xe940;" glyph-name="opt-out" d="M256 704h256v128h-384v-384h128v256zM768 192h-256v-128h384v384h-128v-256zM608 448c0-53.019-42.981-96-96-96s-96 42.981-96 96c0 53.019 42.981 96 96 96s96-42.981 96-96z" />
<glyph unicode="&#xe941;" glyph-name="color" d="M512 960c-282.77 0-512-229.23-512-512v0c0-282.77 229.23-512 512-512v0c46.583 1.049 84.071 38.537 85.118 85.021l0.002 0.099c0.141 1.695 0.222 3.67 0.222 5.663 0 20.050-8.159 38.194-21.338 51.294l-0.004 0.004c-12.761 15.489-20.981 35.146-22.385 56.663l-0.015 0.297c1.060 47.155 39.19 85.060 86.333 85.759l0.067 0.001h101.76c0.385-0.002 0.842-0.003 1.298-0.003 155.17 0 280.96 125.79 280.96 280.96 0 1.126-0.007 2.251-0.020 3.374l0.002-0.171c0 250.24-227.2 455.040-512 455.040zM352 64c-53.019 0-96 42.981-96 96s42.981 96 96 96c53.019 0 96-42.981 96-96v0c0-53.019-42.981-96-96-96v0z" />
<glyph unicode="&#xe942;" glyph-name="back" d="M384 676.48v219.52l-384-384 384-384v225.28c284.16 0 512-97.28 640-353.28 0 384-241.92 622.080-640 676.48z" />
<glyph unicode="&#xe943;" glyph-name="load" d="M266.88 236.8c-0.322 0.004-0.702 0.006-1.082 0.006-26.366 0-50.216-10.773-67.388-28.157l-0.009-0.010c-17.046-17.505-27.558-41.445-27.558-67.84s10.512-50.335 27.579-67.861l-0.021 0.021c17.182-17.394 41.032-28.166 67.398-28.166 0.38 0 0.76 0.002 1.14 0.007l-0.058-0.001c25.178 0.66 47.744 11.318 63.974 28.133l0.026 0.027c17.825 17.146 28.897 41.2 28.897 67.84s-11.073 50.694-28.867 67.811l-0.030 0.029c-16.256 16.842-38.822 27.5-63.879 28.157l-0.121 0.003zM248.96 417.28c0.010 0.522 0.015 1.138 0.015 1.755 0 28.958-12.020 55.109-31.344 73.735l-0.031 0.030c-19.456 20.083-46.672 32.549-76.8 32.549s-57.344-12.466-76.773-32.521l-0.027-0.028c-19.308-19.336-31.249-46.034-31.249-75.52 0-58.989 47.789-106.817 106.763-106.88h0.006c0.954-0.031 2.076-0.049 3.201-0.049 29.314 0 55.821 12.017 74.864 31.394l0.015 0.015c19.355 18.656 31.375 44.806 31.375 73.765 0 0.617-0.005 1.233-0.016 1.848l0.001-0.092zM840.96 661.12c0.196-0.003 0.427-0.004 0.658-0.004 14.489 0 27.606 5.871 37.102 15.364v0c9.43 9.769 15.24 23.086 15.24 37.76s-5.81 27.991-15.255 37.776l0.015-0.016c-9.555 9.872-22.925 16-37.727 16-0.011 0-0.023 0-0.034 0h0.002c-0.119 0.001-0.259 0.002-0.4 0.002-29.337 0-53.12-23.783-53.12-53.12 0-14.768 6.027-28.129 15.755-37.757l0.005-0.005c9.399-9.491 22.433-15.368 36.84-15.368 0.323 0 0.646 0.003 0.968 0.009l-0.048-0.001zM259.84 816.64c-0.514 0.008-1.121 0.013-1.729 0.013-31.969 0-60.845-13.243-81.441-34.542l-0.030-0.032c-21.331-20.627-34.573-49.503-34.573-81.471 0-0.608 0.005-1.214 0.014-1.82l-0.001 0.091c-0.014-0.647-0.021-1.41-0.021-2.175 0-31.63 13.264-60.163 34.532-80.339l0.049-0.046c20.627-21.331 49.503-34.573 81.471-34.573 0.608 0 1.214 0.005 1.82 0.014l-0.091-0.001c0.567-0.010 1.235-0.016 1.904-0.016 31.714 0 60.332 13.257 80.613 34.532l0.042 0.045c21.319 20.324 34.576 48.942 34.576 80.656 0 0.67-0.006 1.338-0.018 2.005l0.001-0.1c0.008 0.514 0.013 1.121 0.013 1.729 0 31.969-13.243 60.845-34.542 81.441l-0.032 0.030c-20.324 21.319-48.942 34.576-80.656 34.576-0.67 0-1.338-0.006-2.005-0.018l0.1 0.001zM1005.44 471.68c-11.6 11.693-27.675 18.932-45.441 18.932-35.252 0-63.847-28.501-63.999-63.717v-0.015c-0.001-0.11-0.001-0.24-0.001-0.37 0-17.581 7.089-33.507 18.565-45.074l-0.004 0.004c11.6-11.693 27.675-18.931 45.44-18.931s33.84 7.238 45.436 18.927l0.004 0.004c11.501 11.568 18.611 27.514 18.611 45.12s-7.109 33.552-18.614 45.123l0.003-0.003zM842.88 215.68c-0.154 0.001-0.335 0.002-0.517 0.002-20.656 0-39.307-8.584-52.58-22.378l-0.022-0.023c-13.425-13.433-21.729-31.987-21.729-52.48s8.303-39.047 21.729-52.48v0c13.296-13.818 31.947-22.402 52.603-22.402 0.182 0 0.364 0.001 0.545 0.002h-0.028c41.355 0 74.88 33.525 74.88 74.88s-33.525 74.88-74.88 74.88v0zM554.24 106.88c-0.379 0.006-0.826 0.010-1.274 0.010-23.103 0-43.972-9.564-58.865-24.948l-0.021-0.022c-15.423-15.503-24.957-36.878-24.957-60.48s9.534-44.977 24.961-60.484l-0.004 0.004c15.401-15.386 36.669-24.902 60.16-24.902s44.759 9.516 60.161 24.903l-0.001-0.001c15.423 15.503 24.957 36.878 24.957 60.48s-9.534 44.977-24.961 60.484l0.004-0.004c-14.914 15.406-35.783 24.97-58.886 24.97-0.448 0-0.895-0.004-1.341-0.011l0.067 0.001zM554.24 960c-0.847 0.021-1.844 0.033-2.844 0.033-34.507 0-65.691-14.223-88.011-37.127l-0.025-0.026c-22.93-22.345-37.153-53.53-37.153-88.036 0-1 0.012-1.997 0.036-2.992l-0.003 0.148c-0.021-0.847-0.033-1.844-0.033-2.844 0-34.507 14.223-65.691 37.127-88.011l0.026-0.025c23.2-23.385 55.349-37.862 90.88-37.862s67.68 14.477 90.872 37.854l0.008 0.008c22.944 23.126 37.122 54.977 37.122 90.14 0 0.26-0.001 0.52-0.002 0.78v-0.040c0.001 0.22 0.002 0.48 0.002 0.74 0 35.163-14.179 67.014-37.13 90.148l0.008-0.008c-22.543 22.931-53.894 37.142-88.564 37.142-0.814 0-1.627-0.008-2.438-0.023l0.121 0.002z" />
<glyph unicode="&#xe944;" glyph-name="download" d="M832 224c0-53.019-42.981-96-96-96v0h-448c-53.019 0-96 42.981-96 96v0 96h-192v-96c0.363-158.912 129.088-287.637 287.965-288h448.035c158.912 0.363 287.637 129.088 288 287.965v96.035h-192zM608 576v384h-192v-384h-160l256-256 256 256h-160z" />
<glyph unicode="&#xe945;" glyph-name="ellipsis-h" d="M896 320c-70.692 0-128 57.308-128 128s57.308 128 128 128c70.692 0 128-57.308 128-128s-57.308-128-128-128zM512 320c-70.692 0-128 57.308-128 128s57.308 128 128 128c70.692 0 128-57.308 128-128s-57.308-128-128-128zM128 320c-70.692 0-128 57.308-128 128s57.308 128 128 128c70.692 0 128-57.308 128-128s-57.308-128-128-128z" />
<glyph unicode="&#xe946;" glyph-name="upload" d="M768 704l-256 256-256-256h160v-384h192v384h160zM832 224c0-53.019-42.981-96-96-96v0h-448c-53.019 0-96 42.981-96 96v0 96h-192v-96c0.363-158.912 129.088-287.637 287.965-288h448.035c158.912 0.363 287.637 129.088 288 287.965v96.035h-192z" />
<glyph unicode="&#xe947;" glyph-name="clock-off" d="M563.84 448h-8.96v256h-85.76v-341.12h17.92l76.8 85.12zM199.040 43.52l85.76 95.36c-95.707 70.676-157.092 183.064-157.092 309.789 0 212.077 171.923 384 384 384 112.963 0 214.534-48.778 284.799-126.42l0.293-0.329 86.4 95.36c-93.5 98.463-225.366 159.717-371.539 159.717-282.77 0-512-229.23-512-512 0-164.534 77.61-310.941 198.219-404.611l1.16-0.867zM611.84 362.88h113.28v85.12h-38.4l-74.88-85.12zM128-64l896 1024-128-1.28-896-1022.72h128zM896 683.52l-44.16-50.56c29.689-53.228 47.169-116.769 47.169-184.393 0-212.077-171.923-384-384-384-49.649 0-97.097 9.422-140.653 26.577l2.605-0.904-91.52-100.48c65.899-33.113 143.605-52.5 225.839-52.5 282.77 0 512 229.23 512 512 0 105.653-32.002 203.832-86.84 285.372l1.161-1.833z" />
<glyph unicode="&#xe948;" glyph-name="radio-unchecked" d="M1024 448c0-282.77-229.23-512-512-512s-512 229.23-512 512c0 282.77 229.23 512 512 512s512-229.23 512-512z" />
<glyph unicode="&#xe949;" glyph-name="radio-checked" d="M768 448c0-141.385-114.615-256-256-256s-256 114.615-256 256c0 141.385 114.615 256 256 256s256-114.615 256-256z" />
<glyph unicode="&#xe94a;" glyph-name="app-device-monitor" d="M903.040 309.76c22.315 33.099 35.619 73.877 35.619 117.763 0 117.349-95.131 212.48-212.48 212.48-0.373 0-0.745-0.001-1.117-0.003h0.058c-92.57-0.164-171.197-59.677-199.872-142.512l-0.448-1.488h-39.68c-17.28 70.4-54.4 219.52-54.4 219.52l-40.32 160-143.36-427.52-119.040 235.52-93.44-187.52h-34.56v-96h93.44l34.56 68.48 136.96-276.48 112.64 340.48 38.4-132.48h96c12.556-105.759 101.696-186.993 209.808-186.993 43.968 0 84.797 13.435 118.607 36.424l-0.736-0.472 124.16-120.96 60.16 60.16zM828.16 350.72c-8.035-10.025-16.855-18.845-26.548-26.622l-0.332-0.258c-20.961-15.591-47.356-24.96-75.939-24.96-0.078 0-0.155 0-0.233 0h0.012c-70.692 0-128 57.308-128 128s57.308 128 128 128c70.692 0 128-57.308 128-128v0c0-0.066 0-0.143 0-0.221 0-28.583-9.369-54.978-25.203-76.282l0.243 0.342z" />
<glyph unicode="&#xe94b;" glyph-name="filter-off" d="M256 704c70.692 0 128 57.308 128 128s-57.308 128-128 128v0c-46.831-0.292-87.665-25.687-109.753-63.396l-0.327-0.604h-145.92v-128h145.92c22.415-38.313 63.249-63.708 110.038-64h0.042zM512 128h512v-128h-512v128zM795.52 572.16l-147.2-167.68c18.26-49.475 64.879-84.173 119.643-84.48h0.037c46.831 0.292 87.665 25.687 109.753 63.396l0.327 0.604h145.92v128h-145.92c-17.939 30.189-47.154 52.081-81.7 59.994l-0.86 0.166zM1024 768v65.92l-57.6-65.92h57.6zM240.64-64h15.36c70.692 0 128 57.308 128 128v0c-0.156 11.669-1.781 22.89-4.698 33.578l0.218-0.938zM1024 960l-128-1.28-55.040-62.72h-328.96v-128h216.96l-224.64-256h-504.32v-128h392.32l-224.64-256.64-18.56 0.64h-149.12v-128h56.32l-56.32-64h128l35.84 40.32 167.040 191.36 693.12 792.32z" />
<glyph unicode="&#xe94c;" glyph-name="logout" d="M768 192l256 256-256 256v-160h-384v-192h384v-160zM288 128c-53.019 0-96 42.981-96 96v0 448c0 53.019 42.981 96 96 96v0h96v192h-96c-158.912-0.363-287.637-129.088-288-287.965v-448.035c0.363-158.912 129.088-287.637 287.965-288h96.035v192z" />
<glyph unicode="&#xe94d;" glyph-name="smallangle-down" d="M511.913 383.36l-170.88 171.52-24.96-24.96-60.16-60.8 256-256 256 256-60.16 60.8-24.96 24.96-170.88-171.52z" />
<glyph unicode="&#xe94e;" glyph-name="full-timerange" d="M448 832h128v-768h-128v768zM853.76 448l-170.88-170.88 24.96-24.96h-0.64l60.8-60.16 256 256-256 256-60.8-60.16h0.64l-24.96-24.96 170.88-170.88zM170.24 448l170.88 170.88-24.96 24.96h0.64l-60.8 60.16-256-256 256-256 60.8 60.16h-0.64l24.96 24.96-170.88 170.88z" />
<glyph unicode="&#xe94f;" glyph-name="left-timerange" d="M0 960h192v-1024h-192v1024zM639.36 448l256.64 256-37.76 37.12 0.64 0.64-90.88 90.24-384-384 384-384 90.88 90.24h-0.64l37.76 37.76-256.64 256z" />
<glyph unicode="&#xe950;" glyph-name="right-timerange" d="M1024-64h-192v1024h192v-1024zM384.64 448l-256.64-256 37.76-37.12-0.64-0.64 90.88-90.24 384 384-384 384-90.88-90.24h0.64l-37.76-37.76 256.64-256z" />
<glyph unicode="&#xe951;" glyph-name="move-vertical" d="M800 192v384h-192v-384h-160l256-256 256 256h-160zM576 704l-256 256-256-256h160v-384h192v384h160z" />
<glyph unicode="&#xe952;" glyph-name="bell" d="M960 161.28c-0.805 25.15-11.428 47.672-28.141 63.982l-0.019 0.018c-44.8 47.36-99.84 102.4-99.84 318.72-0.075 158.135-114.842 289.441-265.625 315.252l-1.895 0.268c7.179 10.173 11.487 22.82 11.52 36.472v0.008c0 35.346-28.654 64-64 64s-64-28.654-64-64v0c0.033-13.66 4.341-26.307 11.655-36.682l-0.135 0.202c-152.678-26.079-267.445-157.385-267.52-315.512v-0.008c0-216.32-55.040-271.36-99.84-316.16-16.732-16.328-27.355-38.85-28.156-63.852l-0.004-0.148v-99.84h320c0-70.692 57.308-128 128-128s128 57.308 128 128v0h320v97.28z" />
<glyph unicode="&#xe953;" glyph-name="legend-off" d="M0 832h192v-192h-192v192zM0 544h192v-192h-192v192zM492.16 352l167.68 192 84.48 96 279.68 320-128-1.28-111.36-126.72h-464.64v-192h296.32l-83.84-96h-212.48v-192h44.16l-172.16-196.48v100.48h-192v-192h112l-112-128h128l364.16 416zM854.4 640h169.6v192h-1.28l-168.32-192zM602.24 352h421.76v192h-253.44l-168.32-192zM350.72 64h673.28v192h-505.6l-167.68-192z" />
<glyph unicode="&#xe954;" glyph-name="legend-on" d="M0 832h192v-192h-192v192zM320 832h704v-192h-704v192zM0 544h192v-192h-192v192zM0 256h192v-192h-192v192zM320 544h704v-192h-704v192zM320 256h704v-192h-704v192z" />
<glyph unicode="&#xe955;" glyph-name="radio-checked-alt" d="M1024 448c0-282.77-229.229-512-512-512s-512 229.229-512 512 229.229 512 512 512 512-229.229 512-512zM452.777 176.9l379.871 379.871c12.899 12.899 12.899 33.815 0 46.714l-46.714 46.714c-12.899 12.901-33.815 12.901-46.716 0l-309.799-309.797-144.638 144.638c-12.899 12.899-33.815 12.899-46.716 0l-46.714-46.714c-12.899-12.899-12.899-33.815 0-46.714l214.71-214.71c12.901-12.901 33.815-12.901 46.716-0.002z" />
<glyph unicode="&#xe956;" glyph-name="smallangle-left" d="M511.36 384.087l171.52 170.88-24.96 24.96-60.8 60.16-256-256 256-256 60.8 60.16 24.96 24.96-171.52 170.88z" />
<glyph unicode="&#xe957;" glyph-name="smallangle-right" d="M512.64 383.913l-171.52-170.88 24.96-24.96 60.8-60.16 256 256-256 256-60.8-60.16-24.96-24.96 171.52-170.88z" />
<glyph unicode="&#xe958;" glyph-name="dashboard, grid" d="M768 960h256v-256h-256v256zM384 960h256v-256h-256v256zM0 960h256v-256h-256v256zM768 192h256v-256h-256v256zM384 192h256v-256h-256v256zM0 192h256v-256h-256v256zM768 576h256v-256h-256v256zM384 576h256v-256h-256v256zM0 576h256v-256h-256v256z" />
<glyph unicode="&#xe959;" glyph-name="axis-off" d="M389.12 234.88v0l634.88 725.12h-1024v-128h784.64l-149.12-170.88h-315.52v-128h203.52l-149.76-170.24h-53.76v-61.44l-208-237.44h-112v-128h128l112 128 149.12 170.88zM238.72-64h785.28v128h-673.28l-112-128zM1024 832v1.92l-1.28-1.92h1.28zM499.84 234.88h204.16v128h-92.16l-112-128z" />
<glyph unicode="&#xe95a;" glyph-name="axis-on" d="M0 64h1024v-128h-1024v128zM0 960h1024v-128h-1024v128zM320 661.12h384v-128h-384v128zM320 362.88h384v-128h-384v128z" />
<glyph unicode="&#xe95b;" glyph-name="image" d="M672 704c-53.019 0-96-42.981-96-96s42.981-96 96-96c53.019 0 96 42.981 96 96v0c0 53.019-42.981 96-96 96v0zM981.12 960h-981.12v-1024h1024v1024zM768 192l-149.76 237.44-58.88-91.52 90.88-145.92h-55.040l-192 301.44-188.16-301.44h-87.040v640h768v-640z" />
<glyph unicode="&#xe95c;" glyph-name="chart-arrow" d="M663.68 727.36l40.32 40.64-192 192-192-192 40.64-40.64 119.36 119.68v-660.16c-55.647-14.719-96-64.615-96-123.935 0-70.692 57.308-128 128-128s128 57.308 128 128c0 59.321-40.353 109.217-95.107 123.734l-0.893 0.201v660.16z" />
<glyph unicode="&#xe95d;" glyph-name="column-sortable" d="M512 597.76l170.88-170.88 24.96 24.96v-0.64l60.16 60.8-256 256-256-256 60.16-60.8v0.64l24.96-24.96 170.88 170.88zM512 170.24l-170.88 170.88-24.96-24.96v0.64l-60.16-60.8 256-256 256 256-60.16 60.8v-0.64l-24.96 24.96-170.88-170.88z" />
<glyph unicode="&#xe95e;" glyph-name="column-sortable-down" d="M512 170.24l-170.88 170.88-24.96-24.96v0.64l-60.16-60.8 256-256 256 256-60.16 60.8v-0.64l-24.96 24.96-170.88-170.88z" />
<glyph unicode="&#xe95f;" glyph-name="column-sortable-up" d="M512 597.76l170.88-170.88 24.96 24.96v-0.64l60.16 60.8-256 256-256-256 60.16-60.8v0.64l24.96-24.96 170.88 170.88z" />
<glyph unicode="&#xe960;" glyph-name="lock" d="M768 448v128c0 0.076 0 0.166 0 0.256 0 35.933-7.294 70.162-20.481 101.287l0.641-1.704c-13.843 31.528-32.379 58.47-55.054 81.294l0.014-0.014c-11.383 11.169-23.713 21.468-36.827 30.734l-0.933 0.626c-26.186 17.47-56.827 30.768-89.725 38.066l-1.795 0.334c-15.585 3.256-33.495 5.121-51.84 5.121s-36.255-1.864-53.55-5.414l1.71 0.293c-34.693-7.632-65.334-20.93-92.511-39.020l0.991 0.62c-14.047-9.892-26.377-20.191-37.807-31.406l0.047 0.046c-22.66-22.81-41.196-49.751-54.374-79.589l-0.666-1.691c-12.547-29.422-19.84-63.651-19.84-99.584 0-0.090 0-0.18 0-0.271v0.014-128h-128v-378.88s0-5.12 0-5.12c0-70.692 57.308-128 128-128v0c2.488-0.167 5.393-0.263 8.32-0.263s5.832 0.095 8.712 0.283l-0.392-0.020h478.72c2.488-0.167 5.393-0.263 8.32-0.263s5.832 0.095 8.712 0.283l-0.392-0.020c70.692 0 128 57.308 128 128v0s0 5.12 0 7.040v0 376.96zM576 128c0-35.346-28.654-64-64-64s-64 28.654-64 64v0 128c0 35.346 28.654 64 64 64s64-28.654 64-64v0zM640 448h-256v128c0 70.692 57.308 128 128 128s128-57.308 128-128v0z" />
<glyph unicode="&#xe961;" glyph-name="arrow-e, move-right" d="M601.6 89.6l358.4 358.4-358.4 358.4v-224h-537.6v-268.8h537.6v-224z" />
<glyph unicode="&#xe962;" glyph-name="export" d="M736 699.52v164.48l288-288-288-288v168.96c-213.12 0-384-72.96-480-264.96 0 288 181.12 466.56 480 507.52zM896 128c0-35.346-28.654-64-64-64v0h-640c-35.346 0-64 28.654-64 64v0 64h-128v-64c0-106.039 85.961-192 192-192v0h640c106.039 0 192 85.961 192 192v0 64h-128zM192 64c-35.346 0-64 28.654-64 64v0 640c0 35.346 28.654 64 64 64v0h64v128h-64c-106.039 0-192-85.961-192-192v0-640c0-106.039 85.961-192 192-192v0h64v128z" />
<glyph unicode="&#xe963;" glyph-name="column-one" d="M0 960h1024v-256h-1024v256zM597.76 75.52h137.6v330.88h-120.96v105.6c63.017 10.869 119.237 33.274 168.848 65.085l-1.808-1.085h128v-500.48h114.56v-139.52h-426.24zM0 576h160v-640h-160v640zM288 576h160v-640h-160v640z" />
<glyph unicode="&#xe964;" glyph-name="column-two" d="M0 960h1024v-256h-1024v256zM568.32 33.28c148.48 136.32 263.68 241.28 263.68 327.040 0.412 2.925 0.647 6.303 0.647 9.737 0 40.648-32.952 73.6-73.6 73.6-1.579 0-3.145-0.050-4.699-0.148l0.212 0.011c-42.193-5.719-78.404-27.631-102.773-59.161l-0.267-0.359-90.88 90.88c50.267 61.931 126.386 101.185 211.674 101.185 2.084 0 4.162-0.023 6.234-0.070l-0.309 0.005c4.623 0.378 10.007 0.594 15.441 0.594 110.987 0 200.96-89.973 200.96-200.96 0-2.009-0.029-4.012-0.088-6.007l0.007 0.293c0-101.12-95.36-211.84-180.48-298.88 30.595 4.041 66.935 6.806 103.748 7.658l1.212 0.022h104.96v-142.72h-455.68zM0 576h160v-640h-160v640zM288 576h160v-640h-160v640z" />
<glyph unicode="&#xe965;" glyph-name="arrow-n, move-up" d="M870.4 537.6l-358.4 358.4-358.4-358.4h224v-537.6h268.8v537.6h224z" />
<glyph unicode="&#xe966;" glyph-name="arrow-s, move-down" d="M153.6 358.4l358.4-358.4 358.4 358.4h-224v537.6h-268.8v-537.6h-224z" />
<glyph unicode="&#xe967;" glyph-name="arrow-w, move-left" d="M422.4 806.4l-358.4-358.4 358.4-358.4v224h537.6v268.8h-537.6v224z" />
<glyph unicode="&#xe968;" glyph-name="column-three" d="M0 960h1024v-256h-1024v256zM640 128c32.687-33.755 77.565-55.533 127.516-58.219l0.484-0.021c54.4 0 89.6 19.2 89.6 58.24s-25.6 74.24-153.6 74.24v117.76c103.68 0 134.4 26.88 134.4 69.76s-22.4 56.32-64 56.32c-43.106-2.108-81.402-21.106-108.711-50.463l-0.089-0.097-85.12 100.48c52.695 48.415 122.854 78.556 200.031 79.996l0.289 0.004c136.32 0 224-64 224-174.080-1.058-62.209-41.937-114.595-98.195-132.838l-1.005-0.282v-3.84c68.192-15.23 118.403-75.23 118.403-146.957 0-0.31-0.001-0.621-0.003-0.931v0.048c0-117.12-110.72-181.12-239.36-181.12-5.098-0.335-11.051-0.526-17.050-0.526-79.878 0-151.845 33.874-202.318 88.041l-0.152 0.165zM0 576h160v-640h-160v640zM288 576h160v-640h-160v640z" />
<glyph unicode="&#xe969;" glyph-name="dashboard-table" d="M0 864h1024v-192h-1024v192zM0 544h448v-192h-448v192zM0 224h448v-192h-448v192zM576 544h448v-192h-448v192zM576 224h448v-192h-448v192z" />
<glyph unicode="&#xe96a;" glyph-name="note-error" d="M512 960c-282.77 0-512-229.23-512-512s229.23-512 512-512c282.77 0 512 229.23 512 512v0c0 282.77-229.23 512-512 512v0zM384 192l128 256h-192l128 256h192l-96-192h160z" />
<glyph unicode="&#xe96b;" glyph-name="note-help" d="M512 960c-282.77 0-512-229.23-512-512s229.23-512 512-512c282.77 0 512 229.23 512 512v0c0 282.77-229.23 512-512 512v0zM508.8 192c-35.346 0-64 28.654-64 64s28.654 64 64 64c35.346 0 64-28.654 64-64v0c0-35.346-28.654-64-64-64v0zM601.6 441.6c-22.4-12.8-41.6-22.4-41.6-41.6v-38.4h-105.6v44.8c2.978 44.678 32.512 81.752 72.836 95.769l0.764 0.231h3.2c25.6 16 51.2 28.8 51.2 54.4s-38.4 54.4-70.4 54.4c-35.766-1.358-66.548-21.452-82.942-50.7l-0.258-0.5-9.6-12.8-12.8 9.6-41.6 32-12.8 9.6 9.6 16c31.745 53.055 88.416 88.329 153.419 89.597l0.181 0.003c76.8 0 166.4-64 166.4-147.2s-44.8-92.8-80-115.2z" />
<glyph unicode="&#xe96c;" glyph-name="note-info" d="M512 960c-282.77 0-512-229.23-512-512s229.23-512 512-512c282.77 0 512 229.23 512 512v0c0 282.77-229.23 512-512 512v0zM502.4 704c40.648 0 73.6-32.952 73.6-73.6s-32.952-73.6-73.6-73.6c-40.648 0-73.6 32.952-73.6 73.6v0c0 40.648 32.952 73.6 73.6 73.6v0zM640 192h-256v86.4h73.6v128h-73.6v83.2h182.4v-214.4h73.6z" />
<glyph unicode="&#xe96d;" glyph-name="note-okay" d="M512 960c-282.77 0-512-229.23-512-512s229.23-512 512-512c282.77 0 512 229.23 512 512v0c0 282.77-229.23 512-512 512v0zM448 256l-192 192 64 64 128-128 256 256 64-64z" />
<glyph unicode="&#xe96e;" glyph-name="note-warning" d="M512 960c-282.77 0-512-229.23-512-512s229.23-512 512-512c282.77 0 512 229.23 512 512v0c0 282.77-229.23 512-512 512v0zM512 192c-35.346 0-64 28.654-64 64s28.654 64 64 64c35.346 0 64-28.654 64-64v0c0-35.346-28.654-64-64-64v0zM560 361.6h-96l-16 342.4h128z" />
<glyph unicode="&#xe96f;" glyph-name="table" d="M0 864h1024v-192h-1024v192zM0 544h448v-192h-448v192zM0 224h448v-192h-448v192zM576 544h448v-192h-448v192zM576 224h448v-192h-448v192z" />
<glyph unicode="&#xe970;" glyph-name="move-horizontal" d="M256 160h384v192h-384v160l-256-256 256-256v160zM768 384l256 256-256 256v-160h-384v-192h384v-160z" />
<glyph unicode="&#xe971;" glyph-name="move-all-left" d="M448 96h384v192h-384v160l-256-256 256-256v160zM448 960l-256-256 256-256v160h384v192h-384v160z" />
<glyph unicode="&#xe972;" glyph-name="move-all-right" d="M576 800h-384v-192h384v-160l256 256-256 256v-160zM576-64l256 256-256 256v-160h-384v-192h384v-160z" />
<glyph unicode="&#xe973;" glyph-name="column-four" d="M0 960h1024v-256h-1024v256zM1024 79.36h-68.48v-143.36h-161.92v143.36h-272v120.96l217.6 375.68h216.32v-365.44h68.48zM793.6 207.36v76.16c0 42.88 4.48 107.52 6.4 151.040h-3.84c-16.64-38.4-34.56-76.8-52.48-115.2l-58.88-108.8zM0 576h160v-640h-160v640zM288 576h160v-640h-160v640z" />
<glyph unicode="&#xe974;" glyph-name="column-five" d="M0 960h1024v-256h-1024v256zM0 576h160v-640h-160v640zM288 576h160v-640h-160v640zM633.6 132.48c32.855-33.733 77.543-55.8 127.346-59.481l0.654-0.039c59.52 0 93.44 25.6 93.44 81.28 0.086 1.358 0.135 2.945 0.135 4.544 0 42.415-34.385 76.8-76.8 76.8-3.659 0-7.258-0.256-10.78-0.751l0.406 0.047c-0.835 0.018-1.819 0.029-2.806 0.029-32.185 0-61.777-11.101-85.155-29.684l0.281 0.215-72.32 47.36 16 323.2h372.48v-142.72h-228.48l-8.32-90.88c16.584 6.109 35.736 9.644 55.714 9.644 1.338 0 2.673-0.016 4.003-0.047l-0.198 0.004c5.23 0.525 11.304 0.825 17.447 0.825 102.151 0 184.96-82.809 184.96-184.96 0-2.766-0.061-5.518-0.181-8.254l0.014 0.389c0.013-0.883 0.020-1.925 0.020-2.969 0-122.298-99.142-221.44-221.44-221.44-4.735 0-9.436 0.149-14.098 0.442l0.638-0.032c-3.061-0.108-6.658-0.169-10.27-0.169-84.989 0-162.033 34.017-218.259 89.177l0.049-0.048z" />
<glyph unicode="&#xe975;" glyph-name="column-six" d="M0 960h1024v-256h-1024v256zM928.64 398.72c-23.711 24.933-56.534 41.007-93.108 42.867l-0.332 0.013c-60.16 0-108.16-41.6-113.92-166.4 27.133 35.922 68.328 59.984 115.247 63.96l0.593 0.040c4.563 0.428 9.866 0.672 15.226 0.672 95.435 0 172.8-77.365 172.8-172.8 0-7.002-0.417-13.908-1.226-20.692l0.080 0.82c0.117-2.573 0.183-5.589 0.183-8.622 0-112.048-90.832-202.88-202.88-202.88-3.892 0-7.758 0.11-11.595 0.326l0.532-0.024c-119.040 0-241.28 85.76-241.28 309.12s122.24 330.88 254.72 330.88c0.919 0.011 2.005 0.018 3.092 0.018 73.746 0 140.522-29.84 188.914-78.104l-0.006 0.006zM872.32 142.72c0 59.52-33.28 74.24-67.84 74.24-35.018-1.36-64.864-22.197-79.122-51.93l-0.238-0.55c14.080-87.040 50.56-106.88 81.28-106.88s65.92 23.040 65.92 88.32zM0 576h160v-640h-160v640zM288 576h160v-640h-160v640z" />
<glyph unicode="&#xe976;" glyph-name="dashboard-status" d="M501.12 554.88c0.189-0.002 0.413-0.003 0.637-0.003 41.355 0 74.88 33.525 74.88 74.88s-33.525 74.88-74.88 74.88c-41.355 0-74.88-33.525-74.88-74.88 0-0.224 0.001-0.448 0.003-0.672v0.034c0-41.002 33.238-74.24 74.24-74.24v0zM384 277.12v-85.12h256v85.12h-74.88v213.76h-181.12v-85.76h74.88v-128h-74.88zM123.52 960h-123.52v-1024h1024v1024zM896 64h-772.48v768h772.48z" />
<glyph unicode="&#xe977;" glyph-name="dashboard-chart" d="M896 896c-70.421-0.358-127.37-57.528-127.37-127.998 0-31.845 11.629-60.974 30.872-83.371l-0.143 0.17-259.2-432c-8.43 1.951-18.136 3.112-28.098 3.2h-0.062c-25.182-0.124-48.617-7.501-68.352-20.147l0.512 0.307-197.12 165.12c5.669 13.708 8.961 29.626 8.961 46.312 0 0.143 0 0.287-0.001 0.43v-0.022c0 70.692-57.308 128-128 128s-128-57.308-128-128c0-70.692 57.308-128 128-128v0c23.853 0.879 45.841 8.154 64.509 20.146l-0.509-0.306 197.76-165.12c-3.835-11.432-6.047-24.596-6.047-38.277 0-2.971 0.104-5.917 0.31-8.836l-0.022 0.393c-0.001-0.217-0.002-0.474-0.002-0.73 0-70.692 57.308-128 128-128s128 57.308 128 128c0 32.183-11.878 61.592-31.488 84.083l0.13-0.153 259.2 428.8c4.223-0.466 9.121-0.733 14.080-0.733s9.857 0.266 14.678 0.785l-0.598-0.052c70.692 0 128 57.308 128 128s-57.308 128-128 128v0z" />
<glyph unicode="&#xe978;" glyph-name="app-processexploration" d="M896 896c-70.421-0.358-127.37-57.528-127.37-127.998 0-31.845 11.629-60.974 30.872-83.371l-0.143 0.17-259.2-432c-8.43 1.951-18.136 3.112-28.098 3.2h-0.062c-25.182-0.124-48.617-7.501-68.352-20.147l0.512 0.307-197.12 165.12c5.669 13.708 8.961 29.626 8.961 46.312 0 0.143 0 0.287-0.001 0.43v-0.022c0 70.692-57.308 128-128 128s-128-57.308-128-128c0-70.692 57.308-128 128-128v0c23.853 0.879 45.841 8.154 64.509 20.146l-0.509-0.306 197.76-165.12c-3.835-11.432-6.047-24.596-6.047-38.277 0-2.971 0.104-5.917 0.31-8.836l-0.022 0.393c-0.001-0.217-0.002-0.474-0.002-0.73 0-70.692 57.308-128 128-128s128 57.308 128 128c0 32.183-11.878 61.592-31.488 84.083l0.13-0.153 259.2 428.8c4.223-0.466 9.121-0.733 14.080-0.733s9.857 0.266 14.678 0.785l-0.598-0.052c70.692 0 128 57.308 128 128s-57.308 128-128 128v0z" />
<glyph unicode="&#xe979;" glyph-name="app-machineconfig" d="M742.4 704v-107.52c-58.856-12.316-102.426-63.779-102.426-125.419 0-0.907 0.009-1.813 0.028-2.716l-0.002 0.135c-0.311-3.252-0.488-7.031-0.488-10.851 0-33.212 13.386-63.299 35.056-85.158l-0.009 0.009c4.466-3.82 10.257-6.208 16.6-6.399l0.040-0.001c7.657 0.166 14.484 3.587 19.174 8.93l0.026 0.030c4.681 4.542 7.585 10.892 7.585 17.92s-2.905 13.378-7.579 17.914l-0.006 0.006c-10.785 12.721-17.342 29.323-17.342 47.456 0 3.578 0.255 7.097 0.749 10.538l-0.046-0.394c0 42.415 34.385 76.8 76.8 76.8s76.8-34.385 76.8-76.8v0c0.447-3.048 0.702-6.566 0.702-10.144 0-18.133-6.558-34.735-17.431-47.563l0.088 0.107c-4.681-4.542-7.585-10.892-7.585-17.92s2.905-13.378 7.579-17.914l0.006-0.006c4.614-4.525 10.941-7.318 17.92-7.318s13.306 2.793 17.924 7.322l-0.004-0.004c18.913 21.248 30.468 49.407 30.468 80.265 0 5.548-0.374 11.009-1.097 16.359l0.069-0.624c0.017 0.768 0.026 1.673 0.026 2.581 0 61.64-43.57 113.103-101.593 125.273l-0.833 0.146v104.96zM128 320h256v-224h-256v224zM512 320h256v-224h-256v224zM896 768c0-70.692-57.308-128-128-128s-128 57.308-128 128c0 70.692 57.308 128 128 128s128-57.308 128-128zM384 768c0-70.692-57.308-128-128-128s-128 57.308-128 128c0 70.692 57.308 128 128 128s128-57.308 128-128zM256 832h512v-128h-512v128zM129.28 960h254.72v-192h-254.72v192zM933.12 117.76h-842.24c-50.192 0-90.88-40.688-90.88-90.88s40.688-90.88 90.88-90.88v0h841.6c50.192 0 90.88 40.688 90.88 90.88s-40.688 90.88-90.88 90.88v0zM90.88-14.72c-0.19-0.003-0.415-0.005-0.64-0.005-22.975 0-41.6 18.625-41.6 41.6s18.625 41.6 41.6 41.6c22.973 0 41.597-18.622 41.6-41.595v0c0-0.001 0-0.003 0-0.005 0-22.75-18.262-41.235-40.926-41.595h-0.034zM231.040-14.72c-0.19-0.003-0.415-0.005-0.64-0.005-22.975 0-41.6 18.625-41.6 41.6s18.625 41.6 41.6 41.6c22.973 0 41.597-18.622 41.6-41.595v0c0.003-0.19 0.005-0.415 0.005-0.64 0-22.622-18.338-40.96-40.96-40.96-0.002 0-0.004 0-0.005 0v0zM371.2-14.72c-22.975 0-41.6 18.625-41.6 41.6s18.625 41.6 41.6 41.6c22.975 0 41.6-18.625 41.6-41.6v0c0-22.975-18.625-41.6-41.6-41.6v0zM511.36-14.72c-22.975 0-41.6 18.625-41.6 41.6s18.625 41.6 41.6 41.6c22.975 0 41.6-18.625 41.6-41.6v0c0-0.001 0-0.003 0-0.005 0-22.75-18.262-41.235-40.926-41.595h-0.034zM651.52-14.72c-22.975 0-41.6 18.625-41.6 41.6s18.625 41.6 41.6 41.6c22.975 0 41.6-18.625 41.6-41.6v0c0-22.975-18.625-41.6-41.6-41.6v0zM792.32-14.72c-0.19-0.003-0.415-0.005-0.64-0.005-22.975 0-41.6 18.625-41.6 41.6s18.625 41.6 41.6 41.6c22.973 0 41.597-18.622 41.6-41.595v0c0-0.001 0-0.003 0-0.005 0-22.75-18.262-41.235-40.926-41.595h-0.034zM932.48-14.72c-0.19-0.003-0.415-0.005-0.64-0.005-22.975 0-41.6 18.625-41.6 41.6s18.625 41.6 41.6 41.6c22.973 0 41.597-18.622 41.6-41.595v0c0-0.001 0-0.003 0-0.005 0-22.75-18.262-41.235-40.926-41.595h-0.034z" />
<glyph unicode="&#xe97a;" glyph-name="app-componenthistory" d="M320 704h512v-128h-512v128zM580.48 512h443.52v-320h-443.52v320zM0 704h256v-512h-256v512zM320 512h192v-320h-192v320zM896 704h128v-128h-128v128z" />
<glyph unicode="&#xe97b;" glyph-name="dashboard-key-value, dashboard-summary, dashboard-text" d="M448 544.33v-192h-448v192h448zM448 224.33v-192h-448v192h448zM1024 544.33v-192h-448v192h448zM1024 224.33v-192h-448v192h448zM448 863.67v-192h-448v192h448zM1024 863.67v-192h-448v192h448z" />
<glyph unicode="&#xe97c;" glyph-name="smallangle-up" d="M511.913 384.64l170.88-171.52 85.12 85.12v0.64l-256 256-256-256v-0.64l85.12-85.12 170.88 171.52z" />
<glyph unicode="&#xe97d;" glyph-name="upload-debug" d="M512 960l-256-256h160v-384h192v384h160l-256 256zM832 224c0-53.020-42.98-96-96-96 0 0 0 0 0 0-268.8 0-418.14 0-448 0-53.020 0-96 42.98-96 96 0 0 0 0 0 0v96h-192c0-57.6 0-89.6 0-96 0.36-158.92 129.080-287.64 287.96-288 44.8 0 403.24 0 448.040 0 158.92 0.36 287.64 129.080 288 287.96 0 6.4 0 38.42 0 96.040h-192c0-51.2 0-83.2 0-96zM874 865.94h-90l73.96-54.14-27.9-91.8 73.94 56.4 73.96-56.4-27.9 91.8 73.94 54.14h-90l-30 94.060-30-94.060z" />
<glyph unicode="&#xe97e;" glyph-name="app-componenthistory-compare" d="M0 960h896v-128h-896v128zM0 320h896v-128h-896v128zM0 704v-256h1024v256zM512 512h-384v128h384zM0 64h896v-128h-896v128z" />
<glyph unicode="&#xe97f;" glyph-name="edit" d="M718.72 707.84l-334.72-334.72v-181.12h181.12l334.72 334.72-181.12 181.12zM896 320v-256h-768v768h512l128 128h-768v-1024h1024v512zM945.28 571.52l58.88 58.88c12.18 12.45 19.696 29.508 19.696 48.32s-7.516 35.869-19.708 48.332l-85.108 85.108c-12.45 12.18-29.508 19.696-48.32 19.696s-35.869-7.516-48.332-19.708l0.012 0.012-58.24-58.88z" />
<glyph unicode="&#xe980;" glyph-name="zoom" d="M577.444 587.87h-115.489v115.489h-89.825v-115.489h-115.489v-89.825h115.489v-115.489h89.825v115.489h115.489zM1026.566 29.674l-269.474 269.474c50.403 68.124 80.677 153.797 80.677 246.541 0 230.326-186.716 417.043-417.043 417.043s-417.043-186.716-417.043-417.043c0-230.326 186.716-417.043 417.043-417.043 92.744 0 178.417 30.274 247.676 81.478l-1.135-0.802 263.058-275.89zM128.321 542.957c0 159.457 129.265 288.722 288.722 288.722s288.722-129.265 288.722-288.722c0-159.457-129.265-288.722-288.722-288.722v0c-159.457 0-288.722 129.265-288.722 288.722v0z" />
<glyph unicode="&#xe981;" glyph-name="zoom-x" d="M378.546 652.030l19.248-38.496 19.248-32.080 19.248 32.080 19.248 38.496h76.992l-70.576-102.657 70.576-115.489h-76.992l-19.248 38.496-19.248 32.080-19.248-32.080-19.248-38.496h-76.992l76.992 109.073-76.992 109.073zM1026.566 29.674l-269.474 269.474c50.403 68.124 80.677 153.797 80.677 246.541 0 230.326-186.716 417.043-417.043 417.043s-417.043-186.716-417.043-417.043c0-230.326 186.716-417.043 417.043-417.043 92.744 0 178.417 30.274 247.676 81.478l-1.135-0.802 263.058-275.89zM128.321 542.957c0 159.457 129.265 288.722 288.722 288.722s288.722-129.265 288.722-288.722c0-159.457-129.265-288.722-288.722-288.722v0c-159.457 0-288.722 129.265-288.722 288.722v0z" />
<glyph unicode="&#xe982;" glyph-name="zoom-y" d="M372.13 652.030l32.080-109.073 12.832-38.496 12.832 38.496 25.664 109.073h76.992l-51.328-141.153c-13.926-57.309-40.739-107.045-77.28-147.896l0.288 0.327c-17.286-16.041-39.124-27.407-63.364-31.956l-0.796-0.124-19.248 57.744 32.080 12.832 25.664 25.664v25.664l-83.409 198.897zM1026.566 29.674l-269.474 269.474c50.403 68.124 80.677 153.797 80.677 246.541 0 230.326-186.716 417.043-417.043 417.043s-417.043-186.716-417.043-417.043c0-230.326 186.716-417.043 417.043-417.043 92.744 0 178.417 30.274 247.676 81.478l-1.135-0.802 263.058-275.89zM128.321 542.957c0 159.457 129.265 288.722 288.722 288.722s288.722-129.265 288.722-288.722c0-159.457-129.265-288.722-288.722-288.722v0c-159.457 0-288.722 129.265-288.722 288.722v0z" />
<glyph unicode="&#xe983;" glyph-name="chart-heatmap, plot-heatmap" horiz-adv-x="1022" d="M0 532.002h466.326v-596.002h-466.326v596.002zM555.758 960h466.326v-596.002h-466.326v596.002zM555.758 276.482h466.326v-340.482h-466.326v340.482zM0 960h466.326v-340.482h-466.326v340.482z" />
<glyph unicode="&#xe984;" glyph-name="chart-scatter" d="M1.466-0.243l960.267 960.267 61.764-61.764-960.267-960.267-61.764 61.764zM248.652 446.055c0-49.297-39.963-89.26-89.26-89.26s-89.26 39.963-89.26 89.26c0 49.297 39.963 89.26 89.26 89.26v0c49.297 0 89.26-39.963 89.26-89.26v0zM248.652 796.719c0.145-1.908 0.228-4.132 0.228-6.375 0-49.297-39.963-89.26-89.26-89.26s-89.26 39.963-89.26 89.26c0 49.217 39.833 89.13 89.019 89.259h0.013c0.068 0 0.148 0 0.228 0 47.053 0 85.603-36.408 89.014-82.59l0.017-0.294zM599.315 796.719c0.145-1.908 0.228-4.132 0.228-6.375 0-49.297-39.963-89.26-89.26-89.26s-89.26 39.963-89.26 89.26c0 49.217 39.833 89.13 89.019 89.259h0.013c0.068 0 0.148 0 0.228 0 47.053 0 85.603-36.408 89.014-82.59l0.017-0.294zM943.603 95.392c0-49.297-39.963-89.26-89.26-89.26s-89.26 39.963-89.26 89.26c0 49.297 39.963 89.26 89.26 89.26v0c49.297 0 89.26-39.963 89.26-89.26v0zM599.315 95.392c0-49.297-39.963-89.26-89.26-89.26s-89.26 39.963-89.26 89.26c0 49.297 39.963 89.26 89.26 89.26v0c49.297 0 89.26-39.963 89.26-89.26v0zM943.603 446.055c0-49.297-39.963-89.26-89.26-89.26s-89.26 39.963-89.26 89.26c0 49.297 39.963 89.26 89.26 89.26v0c49.297 0 89.26-39.963 89.26-89.26v0z" />
<glyph unicode="&#xe985;" glyph-name="dashboard-column, chart-column" horiz-adv-x="1022" d="M0 621.435h172.477v-681.602h-172.477v681.602zM568.534 448.958h172.477v-511.042h-172.477v511.042zM849.607 787.523h172.477v-851.523h-172.477v851.523zM281.073 960h172.477v-1022.084h-172.477v1022.084z" />
<glyph unicode="&#xe986;" glyph-name="chart-boxplots" d="M0 960v-83.2h172.8v-128h-172.8v-428.8h172.8v-128h-172.8v-83.2h428.8v83.2h-172.8v128h172.8v428.8h-172.8v128h172.8v83.2zM851.2 787.2h-256v-83.2h172.8v-128h-172.8v-428.8h172.8v-128h-172.8v-83.2h428.8v83.2h-172.8v128h172.8v428.8h-172.8v128h172.8v83.2z" />
<glyph unicode="&#xe987;" glyph-name="night-shift" horiz-adv-x="1057" d="M42.942 398.452v-42.942h-42.942v-46.245h42.942v-42.942h46.245v42.942h42.942v46.245h-42.942v42.942zM208.103 960v-42.942h-42.942v-46.245h42.942v-42.942h46.245v42.942h42.942v46.245h-42.942v42.942zM792.774 573.523v46.245h-42.942v42.942h-46.245v-42.942h-42.942v-46.245h42.942v-42.942h46.245v42.942zM967.845 926.968v-42.942h-42.942v-46.245h42.942v-42.942h46.245v42.942h42.942v46.245h-42.942v42.942zM990.968 45.006v46.245h-42.942v42.942h-46.245v-42.942h-42.942v-46.245h42.942v-42.942h46.245v42.942zM726.71 2.065h66.065v-66.065h-66.065v66.065zM726.71 398.452c-145.545 0.529-263.327 118.638-263.327 264.256 0 48.649 13.146 94.228 36.080 133.378l-0.675-1.247h-46.245l-33.032-9.91c-128.071-47.416-217.705-168.506-217.705-310.532 0-182.432 147.89-330.323 330.323-330.323 138.425 0 256.963 85.147 306.097 205.922l0.795 2.21 9.91 33.032v46.245c-35.246-19.888-77.21-32.009-121.916-33.027l-0.303-0.005zM528.516 200.258c-145.259 0.903-262.666 118.868-262.666 264.253 0 96.649 51.885 181.18 129.321 227.258l1.215 0.67v-29.729c0-182.432 147.89-330.323 330.323-330.323v0h29.729c-46.387-79.283-130.985-131.776-227.872-132.129h-0.051zM66.065 794.839h66.065v-66.065h-66.065v66.065zM132.129 200.258h66.065v-66.065h-66.065v66.065zM792.774 926.968h66.065v-66.065h-66.065v66.065zM990.968 266.323h66.065v-66.065h-66.065v66.065z" />
<glyph unicode="&#xe988;" glyph-name="late-shift" d="M480 960h64v-128h-64v128zM480 64h64v-128h-64v128zM896 480h128v-64h-128v64zM761.824 153.824l45.255 45.255 90.51-90.51-45.255-45.255-90.51 90.51zM761.792 742.208l90.51 90.51 45.255-45.255-90.51-90.51-45.255 45.255zM201.6 800h44.8v41.6h41.6v44.8h-41.6v41.6h-44.8v-41.6h-41.6v-44.8h41.6zM41.6 384v-41.6h-41.6v-44.8h41.6v-41.6h44.8v41.6h41.6v44.8h-41.6v41.6zM128 192h64v-64h-64v64zM704 384c-140.997 0.513-255.098 114.931-255.098 255.998 0 47.129 12.735 91.283 34.952 129.21l-0.654-1.208h-44.8l-32-9.6c-124.068-45.934-210.901-163.24-210.901-300.828 0-176.731 143.269-320 320-320 134.099 0 248.933 82.486 296.531 199.487l0.77 2.141 9.6 32v44.8c-34.145-19.266-74.797-31.008-118.106-31.995l-0.294-0.005zM512 192c-140.72 0.875-254.457 115.153-254.457 255.995 0 93.629 50.264 175.518 125.28 220.156l1.177 0.649v-28.8c0-176.731 143.269-320 320-320v0h28.8c-44.937-76.805-126.892-127.658-220.751-128h-0.049zM537.6 736l-12.8-32c131.564-6.627 236.573-111.636 243.176-242.591l0.024-0.609 32 12.8 28.8 16c-19.541 143.439-131.761 255.659-273.54 275.014l-1.66 0.186zM64 768h64v-64h-64v64z" />
<glyph unicode="&#xe989;" glyph-name="early-shift" d="M512 704c141.385 0 256-114.615 256-256s-114.615-256-256-256c-141.385 0-256 114.615-256 256v0c0 141.385 114.615 256 256 256v0zM512 768c-176.731 0-320-143.269-320-320s143.269-320 320-320c176.731 0 320 143.269 320 320v0c0 176.731-143.269 320-320 320v0zM480 960h64v-128h-64v128zM480 64h64v-128h-64v128zM0 480h128v-64h-128v64zM896 480h128v-64h-128v64zM128.16 787.424l45.255 45.255 90.51-90.51-45.255-45.255-90.51 90.51zM761.824 153.824l45.255 45.255 90.51-90.51-45.255-45.255-90.51 90.51zM761.792 742.208l90.51 90.51 45.255-45.255-90.51-90.51-45.255 45.255zM128.192 108.544l90.51 90.51 45.255-45.255-90.51-90.51-45.255 45.255z" />
<glyph unicode="&#xe98a;" glyph-name="dashboard-progress, chart-progress" d="M768 704h-512c-141.385 0-256-114.615-256-256s114.615-256 256-256v0h512c141.385 0 256 114.615 256 256s-114.615 256-256 256v0zM768 320h-512c-70.692 0-128 57.308-128 128s57.308 128 128 128v0h512c70.693 0 128-57.308 128-128s-57.307-128-128-128v0zM256 512c-35.346 0-64-28.654-64-64s28.654-64 64-64v0h192v128zM512 512h64v-128h-64v128zM640 512h64v-128h-64v128z" />
<glyph unicode="&#xe98b;" glyph-name="cup-fill" horiz-adv-x="1049" d="M953.419 644.701c-26.034 0-70.581-6.364-125.541-18.513l-16.199-3.471 49.754 334.391h-857.962l150.418-1002.016c1.189-9.18 8.959-16.199 18.368-16.199 0.051 0 0.102 0 0.153 0.001h520.67c0.043 0 0.094-0.001 0.145-0.001 9.409 0 17.178 7.019 18.358 16.106l0.010 0.093 40.497 270.753h9.256c87.358 4.628 149.261 26.034 194.965 66.531 59.010 52.068 89.094 139.426 89.094 259.182 0 59.589-32.976 92.565-92.565 92.565zM689.609 3.688c-2.938-20.382-20.286-35.871-41.251-35.871-0.142 0-0.284 0.001-0.425 0.002h-430.984c-0.12-0.001-0.262-0.002-0.403-0.002-20.965 0-38.313 15.488-41.224 35.647l-0.027 0.224-138.269 924.493h790.852zM812.836 261.134h-6.942c-22.996 0.426-41.475 19.168-41.475 42.226 0 2.043 0.145 4.052 0.425 6.017l-0.026-0.225 42.233 283.48 7.521 1.736c35.869 8.099 101.243 21.984 138.847 21.984s63.638-19.67 63.638-63.638c0-175.873-64.795-268.438-204.221-291.58z" />
<glyph unicode="&#xe98c;" glyph-name="cup" horiz-adv-x="1049" d="M340.755 526.102h208.271v208.271h-208.271zM395.715 675.941h30.662c0.579 4.628 0.579 9.256 1.157 13.885 2.287 12.897 13.412 22.566 26.795 22.566 0.139 0 0.278-0.001 0.417-0.003h37.005v-19.67h-33.555c-8.678 0-10.992-2.893-10.992-11.571v-4.628h44.547v-20.249h-44.547v-12.728h-20.249v12.149h-31.241zM395.715 634.287h69.424c0.144 0.002 0.314 0.004 0.485 0.004 17.11 0 30.98-13.87 30.98-30.98 0-16.466-12.847-29.932-29.064-30.922l-0.087-0.004h-40.497v32.976h19.67v-11.571h21.984c4.635 0.853 8.101 4.862 8.101 9.681 0 0.054 0 0.108-0.001 0.162v-0.008c-0.182 4.765-3.219 8.777-7.441 10.387l-0.079 0.027h-49.175c-3.471 0-4.628-1.157-4.628-4.628v-62.481h-19.67zM340.755 239.729h208.271v208.271h-208.271zM370.838 332.872c5.207 8.678 12.149 10.414 20.827 13.306 11.804 6.292 19.702 18.522 19.702 32.598 0 0.54-0.012 1.078-0.035 1.612l0.003-0.076c-1.736 15.042-3.471 17.934 1.736 26.612 3.914 7.182 10.78 12.335 18.923 13.859l0.168 0.026c1.246 0.29 2.678 0.456 4.147 0.456 6.373 0 12.016-3.122 15.484-7.921l0.039-0.056c5.207-7.521 3.471-16.199 1.736-27.191s20.249-58.432 36.447-57.853 20.249-1.157 26.612-10.414c3.815-5.311 6.102-11.943 6.102-19.11 0-9.9-4.363-18.781-11.27-24.826l-0.038-0.033c-4.452-3.909-10.326-6.294-16.757-6.294-9.344 0-17.512 5.034-21.94 12.539l-0.065 0.119c-12.728 19.092-28.927 13.885-33.555 10.992-3.307-3.697-8.003-6.093-13.26-6.362l-0.046-0.002c-6.096 0.71-10.782 5.844-10.782 12.072 0 1.055 0.134 2.078 0.387 3.054l-0.019-0.084c1.627 7.024 7.83 12.179 15.237 12.179 0.339 0 0.675-0.011 1.008-0.032l-0.046 0.002c5.207-0.579 7.521-4.628 10.414-8.678s28.348-12.149 28.348 8.099-23.141 57.853-34.712 58.432h-4.050l-4.050-1.157c-11.571-4.050-20.249-15.042-19.67-35.29 1.736-10.414 3.471-19.67-1.736-28.348s-21.406-16.777-31.241-9.256-10.992 24.298-4.050 36.447zM953.419 644.701c-26.034 0-70.581-6.364-125.541-18.513l-16.199-3.471 49.754 334.391h-857.962l150.418-1002.016c1.189-9.18 8.959-16.199 18.368-16.199 0.051 0 0.102 0 0.153 0.001h520.67c0.043 0 0.094-0.001 0.145-0.001 9.409 0 17.178 7.019 18.358 16.106l0.010 0.093 40.497 270.753h9.256c87.358 4.628 149.261 26.034 194.965 66.531 59.010 52.068 89.094 139.426 89.094 259.182 0 59.589-32.976 92.565-92.565 92.565zM689.609 3.688c-2.938-20.382-20.286-35.871-41.251-35.871-0.142 0-0.284 0.001-0.425 0.002h-430.984c-0.12-0.001-0.262-0.002-0.403-0.002-20.965 0-38.313 15.488-41.224 35.647l-0.027 0.224-138.269 924.493h790.852zM812.836 261.134h-6.942c-22.996 0.426-41.475 19.168-41.475 42.226 0 2.043 0.145 4.052 0.425 6.017l-0.026-0.225 42.233 283.48 7.521 1.736c35.869 8.099 101.243 21.984 138.847 21.984s63.638-19.67 63.638-63.638c0-175.873-64.795-268.438-204.221-291.58z" />
<glyph unicode="&#xe98d;" glyph-name="dashboard-pie, chart-pie, plot-pie" d="M530.674 891.511v-415.509h415.509c0.331-0.021 0.719-0.032 1.108-0.032 10.592 0 19.177 8.586 19.177 19.177 0 2.304-0.406 4.512-1.15 6.559l0.043-0.133c-13.311 222.597-192.272 399.34-414.595 409.085l-0.914 0.032c-1.913 0.702-4.121 1.108-6.424 1.108-10.592 0-19.177-8.586-19.177-19.177 0-0.39 0.012-0.777 0.034-1.161l-0.003 0.053zM1003.715 392.9c0.331 0.021 0.719 0.032 1.108 0.032 10.592 0 19.177-8.586 19.177-19.177 0-2.304-0.406-4.512-1.15-6.559l0.043 0.133c-4.799-103.605-45.163-196.95-109.062-268.93l0.39 0.447c-3.485-5.199-9.339-8.577-15.981-8.577s-12.496 3.377-15.938 8.508l-0.043 0.069-287.66 287.66zM728.84 130.81c5.199-3.485 8.577-9.339 8.577-15.981s-3.377-12.496-8.508-15.938l-0.069-0.043c-77.136-71.069-180.554-114.646-294.153-114.646-240.071 0-434.688 194.616-434.688 434.688 0 233.361 183.889 423.774 414.668 434.233l0.941 0.034c1.913 0.702 4.121 1.108 6.424 1.108 10.592 0 19.177-8.586 19.177-19.177 0-0.39-0.012-0.777-0.034-1.161l0.003 0.053v-415.509z" />
<glyph unicode="&#xe98e;" glyph-name="app-analysis-portal, app-data-hub" d="M150.657-33.941v90.358h90.358v-90.358zM400.769 177.979l-10.060-6.024c-34.784-21.485-76.951-34.216-122.091-34.216-0.174 0-0.348 0-0.522 0.001h0.027c-131.371 0.103-237.841 106.572-237.943 237.934v0.010c0.171 131.344 106.6 237.772 237.927 237.943h0.016c12.021-0.373 23.462-1.563 34.637-3.523l-1.446 0.21v48.553h90.358v-80.78c20.3-12.631 37.757-27.33 52.873-44.172l0.198-0.224 137.646 107.285c-6.319 14.018-10.001 30.389-10.001 47.619 0 0.201 0.001 0.402 0.002 0.603v-0.031c0 66.538 53.94 120.478 120.478 120.478v0c66.538 0 120.478-53.94 120.478-120.478v0c-0.149-36.071-16.215-68.36-41.532-90.229l-0.153-0.129 76.744-153.187c7.561 1.666 16.252 2.63 25.165 2.65h0.015c66.538 0 120.478-53.94 120.478-120.478v0c0-66.538-53.94-120.478-120.478-120.478v0c-66.538 0-120.478 53.94-120.478 120.478v0c0.194 36.026 16.17 68.283 41.36 90.235l0.144 0.123-76.564 153.187c-7.552-1.645-16.241-2.608-25.148-2.65h-0.032c-27.756 0.082-53.269 9.617-73.505 25.554l0.255-0.194-140.838-109.815c16.938-31.419 27.022-68.711 27.348-108.329l0.001-0.101c-0.003-45.318-12.707-87.668-34.746-123.685l0.591 1.039-6.325-10.18 195.897-190.716-64.937-64.937zM122.104 375.683c0.068-80.641 65.388-146.002 146.006-146.139h0.013c80.669 0.103 146.037 65.47 146.139 146.13v0.010c-0.124 18.155-3.583 35.467-9.794 51.402l0.337-0.982-74.094-57.709c-2.112-31.248-27.931-55.807-59.506-55.902h-0.009c-33.269 0-60.239 26.97-60.239 60.239v0c0 33.269 26.97 60.239 60.239 60.239v0c11.739-0.329 22.554-4.018 31.594-10.133l-0.209 0.133 70.058 54.576c-26.454 27.282-63.446 44.214-104.394 44.215v0c-80.688-0.034-146.097-65.401-146.2-146.070v-0.010zM150.657 688.925v90.358h90.358v-90.358zM301.254 839.522v90.358h90.358v-90.358z" />
<glyph unicode="&#xe98f;" glyph-name="pencil" d="M526.792 643.912l-334.72-334.72v-181.12h181.12l334.72 334.72-181.12 181.12zM753.352 507.592l58.88 58.88c12.18 12.45 19.696 29.508 19.696 48.32s-7.516 35.869-19.708 48.332l-85.108 85.108c-12.45 12.18-29.508 19.696-48.32 19.696s-35.869-7.516-48.332-19.708l0.012 0.012-58.24-58.88z" />
<glyph unicode="&#xe990;" glyph-name="multi-user" d="M713.088 835.584c17.984 7.232 37.568 11.264 57.984 11.264 86.4 0 157.44-71.104 157.44-157.44 0-86.4-71.040-157.44-157.44-157.44-26.176 0-50.944 6.528-72.704 17.92 27.396 44.654 43.621 98.724 43.621 156.583 0 46.897-10.66 91.304-29.688 130.931l0.787-1.818zM436.288 960c139.008 0 253.44-114.432 253.44-253.44s-114.432-253.44-253.44-253.44c-139.008 0-253.44 114.432-253.44 253.44s114.432 253.44 253.44 253.44zM555.904 392.192c24.36 37.080 65.761 61.224 112.802 61.224 2.78 0 5.54-0.084 8.278-0.251l-0.376 0.018h11.776c54.080-22.912 115.2-22.912 169.28 0h11.84c1.177 0.037 2.561 0.058 3.95 0.058 69.886 0 127.307-53.366 133.737-121.569l0.041-0.537v-114.176h-114.944c-0.512 1.92-1.088 3.648-1.664 5.44-35.997 109.188-137.083 186.606-256.252 186.606-1.757 0-3.51-0.017-5.259-0.050l0.262 0.004-23.68 0.192c-13.219-5.691-29.773-11.497-46.752-16.291l-3.040-0.733zM840.832-57.856h-824.064v199.168c11.238 120.047 111.499 213.264 233.533 213.264 4.819 0 9.605-0.145 14.352-0.432l-0.653 0.032h20.608c43.554-18.976 94.296-30.016 147.616-30.016s104.062 11.040 150.063 30.96l-2.447-0.943h20.608c2.050 0.064 4.46 0.101 6.879 0.101 121.928 0 222.121-93.056 233.433-212.022l0.072-0.943v-199.168z" />
<glyph unicode="&#xe991;" glyph-name="table-asc" horiz-adv-x="512" d="M512.001 630.979l-73.102-72.874-131.176 130.724v-679.012h-103.445v679.012l-131.121-130.724-73.157 72.874 255.998 255.204 255.998-255.204z" />
<glyph unicode="&#xe992;" glyph-name="table-desc" horiz-adv-x="512" d="M512 265.019l-73.102 72.875-131.176-130.723v679.018h-103.443v-679.018l-131.121 130.723-73.158-72.875 256-255.207 256 255.207z" />
<glyph unicode="&#xe993;" glyph-name="bulk-action" d="M856.896 498.112l51.2-30.784c6.464-3.84 10.368-10.816 10.368-18.304s-3.904-14.464-10.368-18.304l-396.16-237.696-396.096 237.76c-6.464 3.84-10.368 10.816-10.368 18.304s3.904 14.464 10.368 18.304l51.2 30.784 344.896-206.912 344.96 206.848zM856.896 297.6l51.2-30.784c6.464-3.84 10.368-10.816 10.368-18.304s-3.904-14.464-10.368-18.304l-374.144-224.512c-13.504-8.128-30.464-8.128-43.968 0l-374.144 224.512c-6.464 3.84-10.368 10.816-10.368 18.304s3.904 14.464 10.368 18.304l51.2 30.784 344.896-206.912 344.96 206.912zM533.952 890.304l374.208-224.512c6.464-3.84 10.368-10.816 10.368-18.304s-3.904-14.464-10.368-18.304l-396.16-237.696-396.16 237.696c-6.464 3.84-10.368 10.816-10.368 18.304s3.904 14.464 10.368 18.304l374.208 224.512c13.504 8.128 30.464 8.128 43.968 0h-0.064z" />
<glyph unicode="&#xe995;" glyph-name="toggle_table" d="M614.4 49.784v768.482h-204.8v-768.482h204.8zM716.8 49.784h204.8v768.482h-204.8v-768.482zM307.2 49.784v768.482h-204.8v-768.482h204.8zM51.2 960h921.6c29.636-1.626 52.706-27.226 51.2-56.862v-910.276c1.506-29.636-21.564-55.236-51.2-56.862h-921.6c-29.636 1.626-52.706 27.226-51.2 56.862v910.276c-1.506 29.636 21.564 55.236 51.2 56.862z" />
<glyph unicode="&#xe996;" glyph-name="app-ramp-up" d="M42.669 434.918c0 0.011 0 0.026 0 0.039 0 23.566 19.103 42.669 42.669 42.669s42.669-19.103 42.669-42.669c0-23.552-19.081-42.647-42.628-42.669h-0.002c-23.524 0.088-42.575 19.112-42.709 42.618v0.012zM232.871 434.918c0 0.011 0 0.026 0 0.039 0 23.566 19.103 42.669 42.669 42.669s42.669-19.103 42.669-42.669c0-23.552-19.081-42.647-42.628-42.669h-0.002c-23.524 0.088-42.575 19.112-42.709 42.618v0.012zM380.404 434.996c0.022 47.115 38.222 85.299 85.339 85.299 47.131 0 85.339-38.208 85.339-85.339 0-47.117-38.185-85.316-85.297-85.339h-0.003c-47.108 0.111-85.267 38.27-85.378 85.367v0.011zM0 815.401c0.022 47.115 38.222 85.299 85.339 85.299 47.131 0 85.339-38.208 85.339-85.339 0-47.117-38.185-85.316-85.297-85.339h-0.003c-47.108 0.111-85.267 38.27-85.378 85.367v0.011zM222.204 815.361c0.022 29.44 23.894 53.298 53.337 53.298 29.457 0 53.337-23.88 53.337-53.337 0-29.444-23.858-53.314-53.295-53.337h-0.002c-29.452 0.067-53.309 23.925-53.376 53.37v0.006zM423.073 815.322c0 0.011 0 0.026 0 0.039 0 23.566 19.103 42.669 42.669 42.669s42.669-19.103 42.669-42.669c0-23.552-19.081-42.647-42.628-42.669h-0.002c-23.524 0.088-42.575 19.112-42.709 42.618v0.012zM32.002 625.001c0 29.457 23.88 53.337 53.337 53.337s53.337-23.88 53.337-53.337c0-29.457-23.88-53.337-53.337-53.337v0c-29.422 0.089-53.247 23.916-53.337 53.329v0.009zM190.202 625.159c0.022 47.115 38.222 85.299 85.339 85.299 47.131 0 85.339-38.208 85.339-85.339 0-47.117-38.185-85.316-85.297-85.339h-0.003c-47.099 0.134-85.244 38.279-85.378 85.366v0.013zM423.073 625.12c0 0.011 0 0.026 0 0.039 0 23.566 19.103 42.669 42.669 42.669s42.669-19.103 42.669-42.669c0-23.552-19.081-42.647-42.628-42.669h-0.002c-23.524 0.088-42.575 19.112-42.709 42.618v0.012zM813.987 269.987c48.169 61.504 77.244 139.977 77.244 225.241 0 202.7-164.321 367.021-367.021 367.021s-367.021-164.321-367.021-367.021c0-202.7 164.321-367.021 367.021-367.021 85.185 0 163.592 29.021 225.873 77.716l-0.809-0.609 1.968-2.087 194.453-194.492c8.301-8.301 19.768-13.435 32.435-13.435 25.333 0 45.87 20.537 45.87 45.87 0 12.667-5.134 24.134-13.435 32.435l-196.579 196.382zM718.847 689.4c49.772-49.771 80.557-118.529 80.557-194.477 0-151.895-123.135-275.029-275.029-275.029s-275.029 123.135-275.029 275.029c0 75.948 30.785 144.706 80.557 194.477v0c49.765 49.779 118.524 80.568 194.473 80.568s144.706-30.789 194.472-80.567l0.001-0.001z" />
<glyph unicode="&#xe997;" glyph-name="app-compare" d="M79.287 94.501c0 0.022 0 0.047 0 0.073 0 43.789 35.498 79.287 79.287 79.287s79.287-35.498 79.287-79.287c0-43.763-35.456-79.245-79.21-79.287h-0.004c-43.711 0.165-79.112 35.514-79.36 79.19v0.024zM432.713 94.501c0 0.022 0 0.047 0 0.073 0 43.789 35.498 79.287 79.287 79.287s79.287-35.498 79.287-79.287c0-43.763-35.456-79.245-79.21-79.287h-0.004c-43.711 0.165-79.112 35.514-79.36 79.19v0.024zM706.853 94.647c0.042 87.546 71.022 158.501 158.574 158.501 87.578 0 158.574-70.996 158.574-158.574 0-87.552-70.954-158.532-158.496-158.574h-0.004c-87.535 0.208-158.439 71.112-158.647 158.627v0.020zM0 801.499c0.042 87.546 71.022 158.501 158.574 158.501 87.578 0 158.574-70.996 158.574-158.574 0-87.552-70.954-158.532-158.496-158.574h-0.004c-87.535 0.208-158.439 71.112-158.647 158.627v0.020zM412.891 801.426c0.042 54.705 44.398 99.035 99.109 99.035 54.736 0 99.109-44.372 99.109-99.109 0-54.71-44.331-99.067-99.031-99.109h-0.004c-54.726 0.125-99.057 44.455-99.182 99.17v0.012zM786.139 801.353c0 0.022 0 0.047 0 0.073 0 43.789 35.498 79.287 79.287 79.287s79.287-35.498 79.287-79.287c0-43.763-35.456-79.245-79.21-79.287h-0.004c-43.711 0.165-79.112 35.514-79.36 79.19v0.024zM59.465 447.707c0 54.736 44.372 99.109 99.109 99.109s99.109-44.372 99.109-99.109c0-54.736-44.372-99.109-99.109-99.109v0c-54.669 0.166-98.943 44.439-99.109 99.093v0.016zM353.426 448c0.042 87.546 71.022 158.501 158.574 158.501 87.578 0 158.574-70.996 158.574-158.574 0-87.552-70.954-158.532-158.496-158.574h-0.004c-87.518 0.249-158.398 71.129-158.647 158.623v0.024zM786.139 447.927c0 0.022 0 0.047 0 0.073 0 43.789 35.498 79.287 79.287 79.287s79.287-35.498 79.287-79.287c0-43.763-35.456-79.245-79.21-79.287h-0.004c-43.711 0.165-79.112 35.514-79.36 79.19v0.024z" />
<glyph unicode="&#xe998;" glyph-name="play" d="M512-64c-282.77 0-512 229.23-512 512s229.23 512 512 512c282.77 0 512-229.23 512-512v0c0-282.77-229.23-512-512-512v0zM384 703.642v-511.232l384 255.59z" />
<glyph unicode="&#xe999;" glyph-name="filter" d="M404.224 367.168l-323.392 485.056v107.776h862.336v-107.776l-323.392-485.056v-323.392l-215.552-107.776z" />
<glyph unicode="&#xe99a;" glyph-name="asset" d="M970.549 699.917v5.12c-3.093 5.001-6.881 9.238-11.29 12.722l-0.102 0.078c-8.859 10.938-19.462 20.052-31.456 27.035l-0.543 0.292-334.584 193.852c-23.1 13.2-50.768 20.984-80.254 20.984s-57.154-7.783-81.062-21.408l0.808 0.424-335.352-194.108c-12.132-7.267-22.437-16.166-31.006-26.55l-0.161-0.201c-4.691-3.582-8.659-7.815-11.849-12.61l-0.119-0.19s0-3.392 0-5.12c-11.904-18.308-19.268-40.54-20.027-64.44l-0.005-0.199v-374.007c0.18-46.604 25.239-87.316 62.58-109.561l0.587-0.324 335.288-193.532c23.295-13.936 51.389-22.175 81.406-22.175s58.111 8.24 82.14 22.581l-0.734-0.406 332.472 193.532c38.041 22.404 63.167 63.157 63.167 109.776 0 0.038 0 0.077 0 0.115v-0.006 374.007c-0.785 23.974-8.098 46.090-20.206 64.816l0.302-0.498zM488.96 840.714c6.978 3.918 15.315 6.226 24.191 6.226s17.214-2.308 24.444-6.357l-0.253 0.13 276.986-164.732-303.161-184.956-303.993 184.956zM154.248 250.328c-4.103 2.188-6.848 6.439-6.848 11.332 0 0.021 0 0.042 0 0.063v-0.003 318.649l306.809-189.244v-316.793zM868.088 250.328l-300.025-174.908v315.705l306.233 187.836v-318.777c-0.389-4.202-2.756-7.778-6.15-9.824l-0.058-0.032z" />
<glyph unicode="&#xe99b;" glyph-name="radio-unchecked-alt" d="M512 960c-282.77 0-512-229.23-512-512s229.23-512 512-512c282.77 0 512 229.23 512 512v0c0 282.77-229.23 512-512 512v0zM512 64c-212.077 0-384 171.923-384 384s171.923 384 384 384c212.077 0 384-171.923 384-384v0c0-212.077-171.923-384-384-384v0z" />
<glyph unicode="&#xe99c;" glyph-name="ban" d="M873.695 448.575c0.007 0.846 0.011 1.847 0.011 2.848 0 71.902-21.509 138.781-58.444 194.552l0.815-1.31-501.396-500.5c55.228-37.064 123.207-59.155 196.347-59.155 0.382 0 0.764 0.001 1.146 0.002h-0.059c0.43-0.002 0.938-0.003 1.447-0.003 50.407 0 98.326 10.65 141.63 29.823l-2.236-0.883c44.732 19.281 82.951 45.376 115.258 77.423l-0.024-0.024c65.114 66.194 105.405 156.977 105.695 257.172v0.056zM209.691 249.86l501.844 501.204c-54.995 37.885-123.053 60.511-196.395 60.511-1.063 0-2.125-0.005-3.186-0.014l0.162 0.001c-0.909 0.008-1.983 0.013-3.058 0.013-65.764 0-127.334-17.961-180.069-49.245l1.634 0.897c-108.477-64.144-180.086-180.516-180.086-313.614 0-0.366 0.001-0.731 0.002-1.096v0.057c-0.002-0.42-0.003-0.918-0.003-1.417 0-73.37 22.088-141.58 59.976-198.346l-0.819 1.304zM1022.731 448.319c0.001-0.442 0.002-0.966 0.002-1.49 0-71.525-14.932-139.563-41.851-201.165l1.26 3.237c-26.929-63.479-63.653-117.729-108.887-163.56l0.055 0.056c-45.522-45.261-99.578-81.995-159.535-107.57l-3.329-1.262c-58.534-25.643-126.754-40.565-198.459-40.565s-139.924 14.922-201.723 41.831l3.264-1.266c-63.276 26.867-117.328 63.598-162.892 108.86l0.028-0.028c-45.206 45.76-81.934 100.016-107.558 160.139l-1.274 3.365c-25.646 58.786-40.566 127.281-40.566 199.259s14.921 140.471 41.839 202.556l-1.272-3.297c26.988 63.346 63.703 117.483 108.885 163.237l-0.053-0.053c45.526 45.252 99.581 81.986 159.533 107.569l3.331 1.263c58.534 25.643 126.754 40.565 198.459 40.565s139.924-14.922 201.723-41.831l-3.264 1.266c63.29-26.826 117.348-63.562 162.887-108.854l-0.023 0.022c45.115-45.709 81.828-99.843 107.546-159.811l1.286-3.373c25.657-58.162 40.591-125.98 40.591-197.286 0-0.637-0.001-1.274-0.004-1.911v0.098z" />
<glyph unicode="&#xe99d;" glyph-name="calendar-today" d="M828.893 855.625v-135.297c0-18.826-17.028-34.116-38.013-34.116h-114.049c-20.976 0-38.013 15.291-38.013 34.116v135.297h-238.707v-134.389c0-19.217-17.39-34.816-38.803-34.816h-116.381c-21.403 0-38.794 15.599-38.794 34.816v134.389h-82.585c-67.591 0-122.465-49.248-122.465-109.91v-696.071c0-60.662 54.874-109.902 122.465-109.902h775.583c67.591 0 122.456 49.24 122.456 109.902v696.071c0 60.662-54.865 109.91-122.456 109.91h-70.239zM914.46 768.033c12.049-3.285 21.561-10.705 21.561-22.319 0 0 0-696.071 0-696.071 0-16.291-18.737-24.337-36.889-24.337h-775.583c-18.161 0-36.898 8.045-36.898 24.337v696.071c0 15.407 16.749 23.436 33.916 24.261v-48.74c0-63.813 53.267-120.39 124.36-120.39h116.381c71.103 0 124.37 56.577 124.37 120.39v48.823c0 0 67.573 0 67.573 0s0-49.732 0-49.732c0-63.422 52.923-119.682 123.58-119.682 0 0 114.049 0 114.049 0 70.666 0 123.58 56.26 123.58 119.682v47.706zM960.946 784.739l-92.381-0.379-17.492-150.56-239.328-0.981-14.626 171.144-167.264-0.687-6.816-171.232-244.852-1.006-29.5 152.551h-84.244l10.245-196.625h882.423l3.836 197.775zM359.968 935.619c0 12.792-10.386 23.175-23.174 23.175h-69.542c-12.794 0-23.181-10.382-23.181-23.175v-181.391c0-12.792 10.386-23.182 23.181-23.182h69.542c12.787 0 23.174 10.389 23.174 23.182v181.391zM791.329 935.619c0 12.792-10.386 23.175-23.174 23.175h-69.542c-12.794 0-23.181-10.382-23.181-23.175v-181.391c0-12.792 10.386-23.182 23.181-23.182h69.542c12.787 0 23.174 10.389 23.174 23.182v181.391zM182.769 498.034h232.877v-232.878h-232.877v232.878z" />
<glyph unicode="&#xe99e;" glyph-name="database" d="M997.055 609.684v-161.684c0-133.929-217.197-242.527-485.055-242.527s-485.055 108.598-485.055 242.527v161.684c0-133.929 217.197-242.527 485.055-242.527s485.055 108.598 485.055 242.527zM26.946 340.211c0-133.929 217.197-242.527 485.055-242.527s485.055 108.598 485.055 242.527v-161.684c0-133.929-217.197-242.527-485.055-242.527s-485.055 108.598-485.055 242.527zM512.001 474.947c-267.858 0-485.055 108.598-485.055 242.527s217.197 242.527 485.055 242.527 485.055-108.598 485.055-242.527-217.197-242.527-485.055-242.527z" />
</font>
</defs>
</svg>
